<?xml version="1.0" encoding="UTF-8"?>
<!DOCTYPE svg PUBLIC "-//W3C//DTD SVG 1.1//EN" "http://www.w3.org/Graphics/SVG/1.1/DTD/svg11.dtd">
<!-- Creator: CorelDRAW 2021 (64 Bit) -->
<svg xmlns="http://www.w3.org/2000/svg" xml:space="preserve" width="46mm" height="10.8557mm" version="1.1" style="shape-rendering:geometricPrecision; text-rendering:geometricPrecision; image-rendering:optimizeQuality; fill-rule:evenodd; clip-rule:evenodd"
viewBox="0 0 585.52 138.18"
 xmlns:xlink="http://www.w3.org/1999/xlink"
 xmlns:xodm="http://www.corel.com/coreldraw/odm/2003">
 <defs>
  <style type="text/css">
   <![CDATA[
    .fil0 {fill:#2A3245;fill-rule:nonzero}
   ]]>
  </style>
    <clipPath id="id0">
     <rect x="0" y="-0" width="137.33" height="138.18"/>
    </clipPath>
 </defs>
 <g id="Camada_x0020_1">
  <metadata id="CorelCorpID_0Corel-Layer"/>
  <g id="_1528393821152">
   <g style="clip-path:url(#id0)">
    <image id="LOGO" x="0" y="0" width="137.33" height="138.18" xlink:href="LOGOS ENTERPRISE_Images\LOGOS ENTERPRISE_ImgID1.png"/>
   </g>
   <g>
    <path class="fil0" d="M193.24 68.08c0,0.46 -0.03,0.86 -0.09,1.19 -0.06,0.33 -0.16,0.61 -0.3,0.84 -0.15,0.23 -0.31,0.38 -0.5,0.49 -0.19,0.1 -0.4,0.15 -0.64,0.15l-26.91 0c-0.67,0 -1.3,-0.19 -1.89,-0.58 -0.59,-0.4 -0.89,-1.07 -0.89,-2.05l0 -43.26c0,-0.97 0.3,-1.65 0.89,-2.05 0.59,-0.38 1.23,-0.58 1.89,-0.58l26.6 0c0.24,0 0.44,0.05 0.64,0.15 0.19,0.1 0.34,0.25 0.46,0.49 0.1,0.23 0.21,0.51 0.28,0.84 0.07,0.33 0.1,0.75 0.1,1.25 0,0.46 -0.03,0.85 -0.1,1.19 -0.08,0.33 -0.18,0.61 -0.28,0.83 -0.12,0.2 -0.28,0.36 -0.46,0.46 -0.19,0.1 -0.4,0.15 -0.64,0.15l-21.93 0 0 15.2 18.83 0c0.24,0 0.44,0.05 0.64,0.17 0.18,0.12 0.34,0.27 0.47,0.47 0.13,0.2 0.22,0.47 0.28,0.82 0.06,0.36 0.09,0.77 0.09,1.24 0,0.46 -0.03,0.84 -0.09,1.16 -0.06,0.33 -0.15,0.59 -0.28,0.79 -0.13,0.2 -0.3,0.34 -0.47,0.43 -0.19,0.09 -0.4,0.13 -0.64,0.13l-18.83 0 0 17.34 22.24 0c0.24,0 0.44,0.05 0.64,0.15 0.19,0.1 0.35,0.26 0.5,0.46 0.13,0.22 0.24,0.5 0.3,0.83 0.06,0.33 0.09,0.75 0.09,1.25zm54.48 -0.03c0,0.5 -0.1,0.93 -0.3,1.28 -0.19,0.35 -0.44,0.64 -0.75,0.86 -0.31,0.23 -0.67,0.38 -1.05,0.49 -0.4,0.1 -0.78,0.15 -1.17,0.15l-2.47 0c-0.77,0 -1.45,-0.06 -2.04,-0.2 -0.58,-0.14 -1.12,-0.38 -1.65,-0.74 -0.52,-0.36 -1.05,-0.84 -1.57,-1.46 -0.52,-0.61 -1.08,-1.42 -1.67,-2.39l-17.12 -27.59c-0.9,-1.42 -1.8,-2.92 -2.7,-4.48 -0.92,-1.56 -1.76,-3.08 -2.54,-4.55l-0.09 0c0.06,1.79 0.1,3.63 0.13,5.51 0.03,1.87 0.04,3.73 0.04,5.58l0 29.28c0,0.18 -0.06,0.34 -0.18,0.51 -0.13,0.15 -0.34,0.28 -0.62,0.37 -0.3,0.09 -0.67,0.17 -1.14,0.23 -0.47,0.06 -1.08,0.09 -1.8,0.09 -0.74,0 -1.35,-0.03 -1.82,-0.09 -0.47,-0.06 -0.84,-0.14 -1.11,-0.23 -0.28,-0.09 -0.47,-0.22 -0.61,-0.37 -0.12,-0.17 -0.18,-0.33 -0.18,-0.51l0 -44.75c0,-1 0.32,-1.71 0.99,-2.14 0.65,-0.42 1.36,-0.64 2.14,-0.64l3.67 0c0.86,0 1.58,0.06 2.16,0.19 0.59,0.11 1.11,0.33 1.57,0.61 0.46,0.28 0.92,0.69 1.34,1.2 0.43,0.51 0.89,1.15 1.36,1.93l13.15 21.28c0.81,1.3 1.59,2.57 2.35,3.81 0.75,1.24 1.49,2.46 2.19,3.66 0.69,1.19 1.39,2.38 2.07,3.54 0.69,1.15 1.36,2.33 2.04,3.51l0.04 0c-0.06,-1.98 -0.1,-4.03 -0.12,-6.17 -0.01,-2.14 -0.01,-4.2 -0.01,-6.16l0 -26.28c0,-0.18 0.06,-0.34 0.18,-0.48 0.13,-0.15 0.34,-0.28 0.62,-0.4 0.3,-0.12 0.68,-0.19 1.14,-0.24 0.47,-0.05 1.09,-0.08 1.86,-0.08 0.66,0 1.24,0.03 1.73,0.08 0.49,0.05 0.87,0.13 1.14,0.24 0.28,0.11 0.47,0.24 0.6,0.4 0.12,0.14 0.18,0.31 0.18,0.48l0 44.68zm49.97 -43.04c0,0.47 -0.03,0.88 -0.09,1.23 -0.06,0.34 -0.15,0.63 -0.28,0.84 -0.13,0.2 -0.28,0.37 -0.47,0.46 -0.19,0.1 -0.4,0.15 -0.62,0.15l-15.74 0 0 42.08c0,0.2 -0.06,0.37 -0.18,0.52 -0.12,0.15 -0.31,0.27 -0.61,0.36 -0.28,0.09 -0.67,0.17 -1.14,0.23 -0.49,0.06 -1.08,0.09 -1.8,0.09 -0.69,0 -1.29,-0.03 -1.77,-0.09 -0.49,-0.06 -0.88,-0.14 -1.17,-0.23 -0.3,-0.09 -0.49,-0.2 -0.61,-0.36 -0.12,-0.15 -0.18,-0.32 -0.18,-0.52l0 -42.08 -15.74 0c-0.22,0 -0.43,-0.05 -0.62,-0.15 -0.19,-0.09 -0.34,-0.26 -0.46,-0.46 -0.1,-0.22 -0.21,-0.5 -0.28,-0.84 -0.07,-0.34 -0.1,-0.75 -0.1,-1.23 0,-0.47 0.03,-0.89 0.1,-1.25 0.07,-0.36 0.18,-0.65 0.28,-0.87 0.12,-0.23 0.26,-0.4 0.46,-0.49 0.19,-0.1 0.4,-0.15 0.62,-0.15l38.93 0c0.22,0 0.43,0.05 0.62,0.15 0.19,0.09 0.34,0.25 0.47,0.49 0.13,0.22 0.22,0.51 0.28,0.87 0.06,0.36 0.09,0.78 0.09,1.25zm39.31 43.07c0,0.46 -0.03,0.86 -0.09,1.19 -0.06,0.33 -0.16,0.61 -0.3,0.84 -0.15,0.23 -0.31,0.38 -0.5,0.49 -0.19,0.1 -0.4,0.15 -0.64,0.15l-26.91 0c-0.66,0 -1.3,-0.19 -1.89,-0.58 -0.59,-0.4 -0.89,-1.07 -0.89,-2.05l0 -43.26c0,-0.97 0.3,-1.65 0.89,-2.05 0.59,-0.38 1.23,-0.58 1.89,-0.58l26.6 0c0.24,0 0.44,0.05 0.64,0.15 0.19,0.1 0.34,0.25 0.46,0.49 0.1,0.23 0.21,0.51 0.28,0.84 0.07,0.33 0.1,0.75 0.1,1.25 0,0.46 -0.03,0.85 -0.1,1.19 -0.08,0.33 -0.18,0.61 -0.28,0.83 -0.12,0.2 -0.28,0.36 -0.46,0.46 -0.19,0.1 -0.4,0.15 -0.64,0.15l-21.93 0 0 15.2 18.83 0c0.24,0 0.44,0.05 0.64,0.17 0.18,0.12 0.34,0.27 0.47,0.47 0.13,0.2 0.22,0.47 0.28,0.82 0.06,0.36 0.09,0.77 0.09,1.24 0,0.46 -0.03,0.84 -0.09,1.16 -0.06,0.33 -0.15,0.59 -0.28,0.79 -0.13,0.2 -0.3,0.34 -0.47,0.43 -0.19,0.09 -0.4,0.13 -0.64,0.13l-18.83 0 0 17.34 22.24 0c0.24,0 0.44,0.05 0.64,0.15 0.19,0.1 0.35,0.26 0.5,0.46 0.13,0.22 0.24,0.5 0.3,0.83 0.06,0.33 0.09,0.75 0.09,1.25zm49.47 1.7c0,0.2 -0.04,0.37 -0.13,0.52 -0.09,0.15 -0.27,0.28 -0.56,0.38 -0.28,0.09 -0.69,0.17 -1.21,0.22 -0.52,0.05 -1.21,0.08 -2.07,0.08 -0.75,0 -1.37,-0.03 -1.85,-0.08 -0.47,-0.05 -0.86,-0.13 -1.15,-0.24 -0.28,-0.11 -0.5,-0.27 -0.67,-0.47 -0.16,-0.19 -0.29,-0.45 -0.41,-0.74l-5.14 -11.45c-0.61,-1.3 -1.24,-2.49 -1.89,-3.58 -0.65,-1.09 -1.42,-2.02 -2.32,-2.81 -0.89,-0.79 -1.95,-1.39 -3.16,-1.84 -1.21,-0.44 -2.68,-0.65 -4.37,-0.65l-4.98 0 0 20.67c0,0.2 -0.06,0.37 -0.19,0.52 -0.13,0.15 -0.34,0.27 -0.61,0.36 -0.28,0.09 -0.65,0.17 -1.12,0.23 -0.49,0.06 -1.08,0.09 -1.8,0.09 -0.72,0 -1.31,-0.03 -1.8,-0.09 -0.47,-0.06 -0.86,-0.14 -1.14,-0.23 -0.3,-0.09 -0.49,-0.2 -0.61,-0.36 -0.12,-0.14 -0.18,-0.32 -0.18,-0.52l0 -44.91c0,-0.97 0.3,-1.65 0.89,-2.05 0.59,-0.38 1.23,-0.58 1.89,-0.58l11.91 0c1.42,0 2.59,0.03 3.53,0.09 0.93,0.06 1.77,0.14 2.53,0.2 2.17,0.33 4.08,0.84 5.75,1.54 1.65,0.7 3.04,1.59 4.17,2.66 1.14,1.07 1.98,2.3 2.54,3.7 0.56,1.38 0.84,2.92 0.84,4.59 0,1.61 -0.25,3.07 -0.75,4.36 -0.52,1.28 -1.24,2.42 -2.19,3.4 -0.96,0.99 -2.1,1.84 -3.43,2.57 -1.33,0.72 -2.81,1.33 -4.46,1.83 0.93,0.36 1.76,0.79 2.51,1.33 0.75,0.54 1.45,1.19 2.1,1.93 0.65,0.76 1.27,1.63 1.85,2.6 0.58,0.97 1.15,2.07 1.73,3.3l5.02 10.69c0.4,0.89 0.67,1.54 0.77,1.89 0.12,0.36 0.18,0.64 0.18,0.84zm-11.22 -34.1c0,-1.89 -0.49,-3.51 -1.48,-4.82 -0.98,-1.3 -2.62,-2.25 -4.94,-2.83 -0.73,-0.18 -1.54,-0.29 -2.44,-0.37 -0.92,-0.08 -2.1,-0.12 -3.58,-0.12l-6.28 0 0 16.35 7.27 0c1.97,0 3.66,-0.2 5.1,-0.61 1.42,-0.42 2.62,-1 3.56,-1.73 0.96,-0.74 1.66,-1.61 2.11,-2.61 0.44,-1 0.66,-2.08 0.66,-3.26zm56.4 0.78c0,2.43 -0.46,4.62 -1.39,6.57 -0.92,1.94 -2.23,3.61 -3.96,4.99 -1.72,1.37 -3.81,2.43 -6.31,3.18 -2.5,0.75 -5.47,1.13 -8.94,1.13l-6.35 0 0 17.45c0,0.2 -0.06,0.38 -0.19,0.52 -0.13,0.15 -0.34,0.27 -0.6,0.36 -0.28,0.09 -0.65,0.17 -1.12,0.23 -0.49,0.06 -1.08,0.09 -1.8,0.09 -0.72,0 -1.31,-0.03 -1.8,-0.09 -0.47,-0.06 -0.86,-0.14 -1.14,-0.23 -0.3,-0.09 -0.49,-0.2 -0.61,-0.36 -0.12,-0.14 -0.18,-0.32 -0.18,-0.52l0 -44.75c0,-1 0.31,-1.71 0.92,-2.14 0.61,-0.42 1.27,-0.64 2.03,-0.64l11.99 0c1.21,0 2.38,0.04 3.49,0.13 1.11,0.09 2.42,0.28 3.93,0.56 1.52,0.29 3.06,0.83 4.64,1.61 1.57,0.79 2.9,1.77 4,2.92 1.09,1.15 1.94,2.48 2.53,3.99 0.59,1.51 0.89,3.18 0.89,5zm-7.8 0.51c0,-1.98 -0.43,-3.63 -1.27,-4.96 -0.86,-1.32 -1.91,-2.32 -3.18,-2.97 -1.26,-0.64 -2.56,-1.06 -3.89,-1.23 -1.35,-0.18 -2.66,-0.27 -3.93,-0.27l-6.89 0 0 19.49 6.72 0c2.25,0 4.12,-0.26 5.6,-0.75 1.49,-0.5 2.73,-1.19 3.75,-2.08 1.01,-0.88 1.77,-1.94 2.29,-3.18 0.52,-1.24 0.78,-2.58 0.78,-4.04zm56.59 32.81c0,0.2 -0.04,0.37 -0.13,0.52 -0.09,0.15 -0.27,0.28 -0.56,0.38 -0.28,0.09 -0.69,0.17 -1.21,0.22 -0.52,0.05 -1.21,0.08 -2.07,0.08 -0.75,0 -1.37,-0.03 -1.85,-0.08 -0.47,-0.05 -0.86,-0.13 -1.15,-0.24 -0.28,-0.11 -0.5,-0.27 -0.67,-0.47 -0.16,-0.19 -0.3,-0.45 -0.41,-0.74l-5.14 -11.45c-0.6,-1.3 -1.24,-2.49 -1.89,-3.58 -0.65,-1.09 -1.42,-2.02 -2.32,-2.81 -0.89,-0.79 -1.95,-1.39 -3.16,-1.84 -1.21,-0.44 -2.68,-0.65 -4.37,-0.65l-4.98 0 0 20.67c0,0.2 -0.06,0.37 -0.19,0.52 -0.13,0.15 -0.34,0.27 -0.61,0.36 -0.28,0.09 -0.65,0.17 -1.12,0.23 -0.49,0.06 -1.08,0.09 -1.8,0.09 -0.72,0 -1.31,-0.03 -1.8,-0.09 -0.47,-0.06 -0.86,-0.14 -1.14,-0.23 -0.3,-0.09 -0.49,-0.2 -0.61,-0.36 -0.12,-0.14 -0.18,-0.32 -0.18,-0.52l0 -44.91c0,-0.97 0.3,-1.65 0.89,-2.05 0.59,-0.38 1.23,-0.58 1.89,-0.58l11.91 0c1.42,0 2.59,0.03 3.53,0.09 0.93,0.06 1.77,0.14 2.53,0.2 2.17,0.33 4.08,0.84 5.75,1.54 1.66,0.7 3.04,1.59 4.17,2.66 1.14,1.07 1.98,2.3 2.54,3.7 0.56,1.38 0.84,2.92 0.84,4.59 0,1.61 -0.25,3.07 -0.75,4.36 -0.52,1.28 -1.24,2.42 -2.19,3.4 -0.96,0.99 -2.1,1.84 -3.43,2.57 -1.33,0.72 -2.81,1.33 -4.46,1.83 0.93,0.36 1.76,0.79 2.51,1.33 0.75,0.54 1.45,1.19 2.1,1.93 0.65,0.76 1.27,1.63 1.85,2.6 0.58,0.97 1.15,2.07 1.73,3.3l5.03 10.69c0.4,0.89 0.66,1.54 0.77,1.89 0.12,0.36 0.18,0.64 0.18,0.84zm-11.22 -34.1c0,-1.89 -0.49,-3.51 -1.48,-4.82 -0.98,-1.3 -2.62,-2.25 -4.94,-2.83 -0.72,-0.18 -1.54,-0.29 -2.44,-0.37 -0.92,-0.08 -2.1,-0.12 -3.58,-0.12l-6.28 0 0 16.35 7.27 0c1.96,0 3.66,-0.2 5.1,-0.61 1.42,-0.42 2.62,-1 3.56,-1.73 0.96,-0.74 1.66,-1.61 2.11,-2.61 0.44,-1 0.66,-2.08 0.66,-3.26zm29.44 34.1c0,0.2 -0.06,0.38 -0.18,0.52 -0.12,0.15 -0.31,0.27 -0.61,0.36 -0.28,0.09 -0.66,0.17 -1.14,0.23 -0.49,0.06 -1.08,0.09 -1.8,0.09 -0.69,0 -1.29,-0.03 -1.77,-0.09 -0.49,-0.06 -0.89,-0.14 -1.17,-0.23 -0.3,-0.09 -0.49,-0.2 -0.61,-0.36 -0.12,-0.14 -0.18,-0.32 -0.18,-0.52l0 -46.56c0,-0.2 0.06,-0.38 0.19,-0.52 0.13,-0.15 0.35,-0.27 0.65,-0.36 0.31,-0.09 0.69,-0.17 1.17,-0.23 0.47,-0.06 1.05,-0.09 1.71,-0.09 0.72,0 1.32,0.03 1.8,0.09 0.47,0.06 0.86,0.14 1.14,0.23 0.3,0.09 0.49,0.2 0.61,0.36 0.12,0.14 0.18,0.32 0.18,0.52l0 46.56zm45.05 -12.64c0,2.26 -0.49,4.28 -1.45,6.06 -0.98,1.76 -2.32,3.27 -4.04,4.51 -1.71,1.23 -3.74,2.16 -6.06,2.79 -2.33,0.63 -4.83,0.93 -7.52,0.93 -1.88,0 -3.62,-0.14 -5.22,-0.41 -1.61,-0.28 -3.04,-0.63 -4.3,-1.02 -1.26,-0.4 -2.31,-0.82 -3.16,-1.24 -0.84,-0.43 -1.45,-0.79 -1.77,-1.1 -0.34,-0.29 -0.58,-0.68 -0.74,-1.14 -0.16,-0.46 -0.24,-1.07 -0.24,-1.84 0,-0.55 0.03,-1.01 0.09,-1.37 0.06,-0.36 0.15,-0.65 0.25,-0.87 0.12,-0.23 0.27,-0.38 0.44,-0.47 0.18,-0.09 0.37,-0.13 0.6,-0.13 0.4,0 0.98,0.22 1.72,0.64 0.72,0.42 1.67,0.88 2.84,1.38 1.15,0.49 2.54,0.96 4.18,1.4 1.63,0.44 3.52,0.65 5.65,0.65 1.63,0 3.1,-0.19 4.45,-0.56 1.35,-0.37 2.5,-0.89 3.46,-1.59 0.98,-0.68 1.72,-1.52 2.23,-2.52 0.52,-1 0.78,-2.14 0.78,-3.4 0,-1.37 -0.35,-2.55 -1.08,-3.52 -0.73,-0.97 -1.67,-1.83 -2.85,-2.57 -1.2,-0.73 -2.54,-1.41 -4.05,-2.02 -1.52,-0.61 -3.07,-1.23 -4.65,-1.87 -1.58,-0.64 -3.13,-1.34 -4.63,-2.12 -1.51,-0.77 -2.85,-1.68 -4.03,-2.72 -1.18,-1.05 -2.14,-2.28 -2.87,-3.7 -0.74,-1.41 -1.11,-3.1 -1.11,-5.07 0,-2.03 0.43,-3.84 1.27,-5.42 0.86,-1.57 2.04,-2.9 3.55,-3.98 1.52,-1.07 3.33,-1.89 5.41,-2.46 2.1,-0.56 4.35,-0.85 6.77,-0.85 1.24,0 2.48,0.09 3.74,0.28 1.26,0.19 2.44,0.43 3.55,0.75 1.11,0.31 2.1,0.67 2.97,1.05 0.86,0.38 1.43,0.7 1.7,0.93 0.28,0.24 0.46,0.42 0.55,0.56 0.09,0.14 0.15,0.32 0.21,0.52 0.06,0.22 0.1,0.47 0.13,0.78 0.03,0.29 0.04,0.68 0.04,1.16 0,0.45 -0.02,0.84 -0.06,1.2 -0.04,0.34 -0.12,0.64 -0.21,0.88 -0.07,0.23 -0.21,0.41 -0.36,0.52 -0.16,0.12 -0.34,0.17 -0.55,0.17 -0.33,0 -0.81,-0.18 -1.49,-0.52 -0.68,-0.36 -1.51,-0.74 -2.5,-1.19 -0.98,-0.43 -2.14,-0.83 -3.49,-1.19 -1.33,-0.37 -2.84,-0.55 -4.52,-0.55 -1.55,0 -2.91,0.18 -4.06,0.54 -1.15,0.37 -2.11,0.84 -2.87,1.44 -0.74,0.6 -1.3,1.3 -1.69,2.12 -0.37,0.83 -0.56,1.7 -0.56,2.62 0,1.34 0.35,2.51 1.08,3.48 0.73,0.97 1.69,1.83 2.88,2.58 1.21,0.75 2.57,1.43 4.11,2.06 1.52,0.63 3.09,1.25 4.69,1.89 1.58,0.64 3.15,1.33 4.67,2.1 1.54,0.75 2.9,1.66 4.11,2.7 1.2,1.04 2.16,2.25 2.9,3.67 0.74,1.41 1.11,3.07 1.11,5zm41.81 10.94c0,0.46 -0.03,0.86 -0.09,1.19 -0.06,0.33 -0.16,0.61 -0.3,0.84 -0.15,0.23 -0.31,0.38 -0.5,0.49 -0.19,0.1 -0.4,0.15 -0.64,0.15l-26.91 0c-0.66,0 -1.3,-0.19 -1.89,-0.58 -0.59,-0.4 -0.89,-1.07 -0.89,-2.05l0 -43.26c0,-0.97 0.3,-1.65 0.89,-2.05 0.59,-0.38 1.23,-0.58 1.89,-0.58l26.6 0c0.24,0 0.44,0.05 0.64,0.15 0.19,0.1 0.34,0.25 0.46,0.49 0.1,0.23 0.21,0.51 0.28,0.84 0.07,0.33 0.1,0.75 0.1,1.25 0,0.46 -0.03,0.85 -0.1,1.19 -0.07,0.33 -0.18,0.61 -0.28,0.83 -0.12,0.2 -0.28,0.36 -0.46,0.46 -0.19,0.1 -0.4,0.15 -0.64,0.15l-21.93 0 0 15.2 18.83 0c0.24,0 0.44,0.05 0.64,0.17 0.18,0.12 0.34,0.27 0.47,0.47 0.13,0.2 0.22,0.47 0.28,0.82 0.06,0.36 0.09,0.77 0.09,1.24 0,0.46 -0.03,0.84 -0.09,1.16 -0.06,0.33 -0.15,0.59 -0.28,0.79 -0.13,0.2 -0.3,0.34 -0.47,0.43 -0.19,0.09 -0.4,0.13 -0.64,0.13l-18.83 0 0 17.34 22.24 0c0.24,0 0.44,0.05 0.64,0.15 0.19,0.1 0.35,0.26 0.5,0.46 0.13,0.22 0.24,0.5 0.3,0.83 0.06,0.33 0.09,0.75 0.09,1.25z"/>
    <g>
     <path class="fil0" d="M214.93 84.74c0,0.16 -0.01,0.29 -0.03,0.41 -0.02,0.12 -0.05,0.22 -0.08,0.3 -0.04,0.08 -0.08,0.13 -0.14,0.16 -0.05,0.03 -0.11,0.05 -0.18,0.05 -0.11,0 -0.29,-0.08 -0.54,-0.23 -0.26,-0.16 -0.59,-0.33 -1.02,-0.52 -0.43,-0.19 -0.94,-0.36 -1.54,-0.52 -0.6,-0.15 -1.3,-0.23 -2.12,-0.23 -0.98,0 -1.85,0.16 -2.62,0.48 -0.77,0.32 -1.43,0.76 -1.97,1.33 -0.54,0.56 -0.95,1.23 -1.24,2.01 -0.28,0.78 -0.43,1.62 -0.43,2.52 0,1.02 0.16,1.91 0.47,2.7 0.32,0.78 0.75,1.45 1.31,1.99 0.55,0.54 1.22,0.95 1.99,1.22 0.77,0.28 1.62,0.42 2.53,0.42 0.55,0 1.1,-0.06 1.66,-0.18 0.56,-0.12 1.08,-0.3 1.56,-0.53l0 -4.63 -4.09 0c-0.16,0 -0.27,-0.07 -0.35,-0.21 -0.08,-0.14 -0.12,-0.36 -0.12,-0.65 0,-0.15 0.01,-0.29 0.03,-0.4 0.02,-0.11 0.05,-0.2 0.09,-0.27 0.04,-0.07 0.09,-0.12 0.14,-0.15 0.05,-0.03 0.12,-0.05 0.21,-0.05l5.6 0c0.1,0 0.2,0.02 0.3,0.05 0.1,0.03 0.19,0.08 0.27,0.15 0.08,0.07 0.15,0.15 0.19,0.27 0.05,0.12 0.07,0.25 0.07,0.39l0 6.05c0,0.21 -0.04,0.4 -0.12,0.55 -0.08,0.16 -0.26,0.29 -0.52,0.41 -0.26,0.12 -0.61,0.25 -1.02,0.38 -0.42,0.14 -0.85,0.26 -1.29,0.36 -0.45,0.1 -0.9,0.17 -1.35,0.22 -0.46,0.05 -0.91,0.08 -1.35,0.08 -1.37,0 -2.59,-0.19 -3.66,-0.57 -1.08,-0.38 -1.98,-0.92 -2.72,-1.63 -0.74,-0.7 -1.31,-1.54 -1.7,-2.53 -0.39,-0.98 -0.59,-2.07 -0.59,-3.29 0,-1.26 0.21,-2.4 0.63,-3.42 0.43,-1.02 1.02,-1.89 1.79,-2.61 0.77,-0.72 1.69,-1.28 2.77,-1.67 1.08,-0.4 2.27,-0.59 3.58,-0.59 0.67,0 1.3,0.05 1.9,0.16 0.59,0.11 1.12,0.23 1.58,0.38 0.46,0.15 0.84,0.3 1.16,0.47 0.31,0.17 0.53,0.31 0.65,0.41 0.12,0.1 0.2,0.23 0.24,0.37 0.05,0.14 0.07,0.34 0.07,0.6zm16.32 12.81c0,0.15 -0.01,0.28 -0.03,0.39 -0.02,0.11 -0.05,0.2 -0.09,0.28 -0.05,0.08 -0.1,0.12 -0.16,0.16 -0.06,0.03 -0.13,0.05 -0.2,0.05l-8.48 0c-0.21,0 -0.41,-0.06 -0.6,-0.19 -0.19,-0.13 -0.28,-0.35 -0.28,-0.67l0 -14.14c0,-0.32 0.09,-0.54 0.28,-0.67 0.19,-0.12 0.39,-0.19 0.6,-0.19l8.38 0c0.08,0 0.14,0.02 0.2,0.05 0.06,0.03 0.11,0.08 0.14,0.16 0.03,0.08 0.07,0.17 0.09,0.28 0.02,0.11 0.03,0.25 0.03,0.41 0,0.15 -0.01,0.28 -0.03,0.39 -0.02,0.11 -0.06,0.2 -0.09,0.27 -0.04,0.07 -0.09,0.12 -0.14,0.15 -0.06,0.03 -0.13,0.05 -0.2,0.05l-6.91 0 0 4.97 5.93 0c0.07,0 0.14,0.02 0.2,0.05 0.06,0.04 0.11,0.09 0.15,0.16 0.04,0.07 0.07,0.15 0.09,0.27 0.02,0.12 0.03,0.25 0.03,0.4 0,0.15 -0.01,0.28 -0.03,0.38 -0.02,0.11 -0.05,0.19 -0.09,0.26 -0.04,0.07 -0.09,0.11 -0.15,0.14 -0.06,0.03 -0.13,0.04 -0.2,0.04l-5.93 0 0 5.67 7.01 0c0.08,0 0.14,0.02 0.2,0.05 0.06,0.03 0.11,0.08 0.16,0.15 0.04,0.07 0.08,0.16 0.09,0.27 0.02,0.11 0.03,0.25 0.03,0.41zm15.13 -3.57c0,0.74 -0.15,1.4 -0.46,1.98 -0.31,0.58 -0.73,1.07 -1.27,1.48 -0.54,0.4 -1.18,0.71 -1.91,0.91 -0.74,0.2 -1.52,0.31 -2.37,0.31 -0.59,0 -1.14,-0.05 -1.64,-0.13 -0.51,-0.09 -0.96,-0.21 -1.35,-0.33 -0.4,-0.13 -0.73,-0.27 -1,-0.41 -0.26,-0.14 -0.46,-0.26 -0.56,-0.36 -0.11,-0.1 -0.18,-0.22 -0.23,-0.37 -0.05,-0.15 -0.07,-0.35 -0.07,-0.6 0,-0.18 0.01,-0.33 0.03,-0.45 0.02,-0.12 0.05,-0.21 0.08,-0.28 0.04,-0.08 0.08,-0.12 0.14,-0.15 0.06,-0.03 0.12,-0.04 0.19,-0.04 0.13,0 0.31,0.07 0.54,0.21 0.23,0.14 0.53,0.29 0.89,0.45 0.36,0.16 0.8,0.31 1.32,0.46 0.51,0.14 1.11,0.21 1.78,0.21 0.51,0 0.98,-0.06 1.4,-0.18 0.42,-0.12 0.79,-0.29 1.09,-0.52 0.31,-0.22 0.54,-0.5 0.7,-0.82 0.16,-0.33 0.25,-0.7 0.25,-1.11 0,-0.45 -0.11,-0.83 -0.34,-1.15 -0.23,-0.32 -0.53,-0.6 -0.9,-0.84 -0.38,-0.24 -0.8,-0.46 -1.28,-0.66 -0.48,-0.2 -0.97,-0.4 -1.47,-0.61 -0.5,-0.21 -0.99,-0.44 -1.46,-0.69 -0.47,-0.25 -0.9,-0.55 -1.27,-0.89 -0.37,-0.34 -0.68,-0.74 -0.9,-1.21 -0.23,-0.46 -0.35,-1.01 -0.35,-1.65 0,-0.66 0.13,-1.25 0.4,-1.77 0.27,-0.51 0.64,-0.95 1.12,-1.3 0.48,-0.35 1.05,-0.62 1.7,-0.8 0.66,-0.18 1.37,-0.28 2.13,-0.28 0.39,0 0.78,0.03 1.18,0.09 0.4,0.06 0.77,0.14 1.12,0.25 0.35,0.1 0.66,0.22 0.94,0.34 0.27,0.12 0.45,0.23 0.54,0.3 0.09,0.08 0.14,0.14 0.17,0.18 0.03,0.05 0.05,0.1 0.06,0.17 0.02,0.07 0.03,0.15 0.04,0.25 0.01,0.1 0.01,0.22 0.01,0.38 0,0.15 -0,0.28 -0.02,0.39 -0.01,0.11 -0.04,0.21 -0.06,0.29 -0.02,0.08 -0.06,0.13 -0.11,0.17 -0.05,0.04 -0.11,0.05 -0.17,0.05 -0.1,0 -0.26,-0.06 -0.47,-0.17 -0.22,-0.12 -0.48,-0.24 -0.79,-0.39 -0.31,-0.14 -0.67,-0.27 -1.1,-0.39 -0.42,-0.12 -0.89,-0.18 -1.42,-0.18 -0.49,0 -0.92,0.06 -1.28,0.18 -0.36,0.12 -0.67,0.28 -0.9,0.47 -0.23,0.2 -0.41,0.43 -0.53,0.69 -0.12,0.27 -0.18,0.56 -0.18,0.86 0,0.44 0.11,0.82 0.34,1.14 0.23,0.32 0.53,0.6 0.91,0.84 0.38,0.25 0.81,0.47 1.29,0.67 0.48,0.2 0.97,0.41 1.48,0.62 0.5,0.21 0.99,0.43 1.47,0.68 0.48,0.25 0.91,0.54 1.29,0.88 0.38,0.34 0.68,0.74 0.91,1.2 0.23,0.46 0.35,1 0.35,1.63zm16.31 -10.5c0,0.15 -0.01,0.29 -0.03,0.4 -0.02,0.11 -0.05,0.2 -0.09,0.28 -0.04,0.07 -0.09,0.12 -0.15,0.15 -0.06,0.03 -0.13,0.05 -0.19,0.05l-4.96 0 0 13.75c0,0.07 -0.02,0.12 -0.06,0.17 -0.04,0.05 -0.1,0.09 -0.19,0.12 -0.09,0.03 -0.21,0.05 -0.36,0.08 -0.15,0.02 -0.34,0.03 -0.57,0.03 -0.22,0 -0.4,-0.01 -0.56,-0.03 -0.15,-0.02 -0.28,-0.05 -0.37,-0.08 -0.09,-0.03 -0.15,-0.07 -0.19,-0.12 -0.04,-0.05 -0.06,-0.1 -0.06,-0.17l0 -13.75 -4.96 0c-0.07,0 -0.13,-0.02 -0.19,-0.05 -0.06,-0.03 -0.11,-0.08 -0.14,-0.15 -0.03,-0.07 -0.07,-0.16 -0.09,-0.28 -0.02,-0.11 -0.03,-0.25 -0.03,-0.4 0,-0.16 0.01,-0.29 0.03,-0.41 0.02,-0.12 0.06,-0.21 0.09,-0.28 0.04,-0.08 0.08,-0.13 0.14,-0.16 0.06,-0.03 0.12,-0.05 0.19,-0.05l12.27 0c0.07,0 0.13,0.02 0.19,0.05 0.06,0.03 0.11,0.08 0.15,0.16 0.04,0.07 0.07,0.17 0.09,0.28 0.02,0.12 0.03,0.25 0.03,0.41zm15.69 14.2c0.07,0.18 0.11,0.32 0.12,0.43 0.01,0.11 -0.03,0.19 -0.1,0.25 -0.07,0.05 -0.19,0.09 -0.36,0.11 -0.17,0.02 -0.39,0.02 -0.68,0.02 -0.28,0 -0.51,-0 -0.67,-0.02 -0.17,-0.01 -0.29,-0.03 -0.38,-0.06 -0.09,-0.03 -0.15,-0.07 -0.19,-0.12 -0.04,-0.05 -0.08,-0.11 -0.12,-0.18l-1.51 -3.86 -7.34 0 -1.45 3.81c-0.03,0.08 -0.06,0.14 -0.11,0.19 -0.05,0.05 -0.11,0.1 -0.2,0.13 -0.08,0.04 -0.21,0.06 -0.37,0.08 -0.16,0.02 -0.36,0.02 -0.62,0.02 -0.26,0 -0.48,-0.01 -0.65,-0.03 -0.17,-0.02 -0.29,-0.06 -0.35,-0.12 -0.07,-0.06 -0.1,-0.14 -0.1,-0.25 0,-0.11 0.04,-0.26 0.12,-0.44l5.92 -14.73c0.04,-0.09 0.09,-0.17 0.14,-0.22 0.06,-0.06 0.14,-0.1 0.26,-0.13 0.11,-0.03 0.26,-0.06 0.44,-0.07 0.18,-0.01 0.4,-0.02 0.68,-0.02 0.29,0 0.53,0 0.72,0.02 0.19,0.01 0.34,0.04 0.46,0.07 0.12,0.03 0.21,0.08 0.27,0.14 0.06,0.06 0.12,0.14 0.15,0.23l5.92 14.73zm-7.6 -13l-0.02 0 -3.04 7.9 6.14 0 -3.08 -7.9zm3.18 -6.05c0,-0.11 0.06,-0.18 0.19,-0.22 0.13,-0.04 0.35,-0.05 0.66,-0.05 0.33,0 0.54,0.03 0.65,0.09 0.1,0.06 0.15,0.2 0.15,0.4 0,0.76 -0.23,1.37 -0.7,1.8 -0.47,0.44 -1.13,0.66 -1.98,0.66 -0.48,0 -0.9,-0.08 -1.26,-0.22 -0.35,-0.15 -0.68,-0.31 -0.97,-0.49 -0.29,-0.18 -0.57,-0.33 -0.83,-0.48 -0.26,-0.15 -0.53,-0.22 -0.82,-0.22 -0.38,0 -0.64,0.1 -0.8,0.31 -0.16,0.2 -0.23,0.48 -0.23,0.82 0,0.06 -0.02,0.1 -0.06,0.14 -0.04,0.04 -0.1,0.07 -0.17,0.09 -0.08,0.02 -0.16,0.03 -0.27,0.04 -0.1,0 -0.22,0 -0.35,0 -0.33,0 -0.54,-0.03 -0.65,-0.1 -0.1,-0.06 -0.15,-0.2 -0.15,-0.39 0,-0.39 0.06,-0.74 0.19,-1.05 0.13,-0.31 0.31,-0.56 0.54,-0.77 0.24,-0.2 0.52,-0.36 0.85,-0.47 0.33,-0.11 0.7,-0.17 1.1,-0.17 0.48,0 0.9,0.08 1.26,0.22 0.35,0.15 0.67,0.31 0.97,0.48 0.29,0.17 0.56,0.33 0.82,0.48 0.25,0.15 0.53,0.22 0.84,0.22 0.31,0 0.56,-0.08 0.75,-0.25 0.18,-0.17 0.28,-0.46 0.28,-0.88zm23.93 11.68c0,1.28 -0.17,2.44 -0.5,3.46 -0.34,1.03 -0.84,1.9 -1.51,2.62 -0.67,0.72 -1.51,1.28 -2.52,1.66 -1.01,0.39 -2.19,0.58 -3.53,0.58 -1.33,0 -2.47,-0.18 -3.44,-0.53 -0.97,-0.36 -1.77,-0.87 -2.4,-1.55 -0.63,-0.68 -1.1,-1.52 -1.41,-2.52 -0.31,-1 -0.46,-2.16 -0.46,-3.46 0,-1.25 0.17,-2.39 0.5,-3.41 0.34,-1.02 0.84,-1.89 1.52,-2.6 0.67,-0.71 1.51,-1.26 2.53,-1.65 1,-0.39 2.18,-0.58 3.53,-0.58 1.3,0 2.43,0.18 3.39,0.53 0.96,0.35 1.77,0.86 2.41,1.53 0.64,0.67 1.12,1.5 1.43,2.5 0.31,0.99 0.47,2.13 0.47,3.41zm-2.49 0.15c0,-0.89 -0.09,-1.73 -0.27,-2.5 -0.18,-0.77 -0.47,-1.44 -0.88,-2.01 -0.42,-0.56 -0.96,-1.01 -1.65,-1.33 -0.69,-0.32 -1.55,-0.48 -2.56,-0.48 -1.02,0 -1.87,0.17 -2.56,0.51 -0.69,0.34 -1.25,0.8 -1.68,1.37 -0.43,0.57 -0.74,1.24 -0.93,2 -0.19,0.76 -0.28,1.56 -0.28,2.4 0,0.93 0.09,1.78 0.26,2.57 0.17,0.79 0.46,1.46 0.87,2.03 0.4,0.56 0.95,1 1.64,1.32 0.68,0.31 1.55,0.47 2.58,0.47 1.03,0 1.89,-0.17 2.59,-0.52 0.7,-0.34 1.26,-0.8 1.69,-1.39 0.42,-0.58 0.73,-1.26 0.91,-2.02 0.18,-0.76 0.27,-1.58 0.27,-2.43zm28.2 -0.2c0,1.37 -0.2,2.57 -0.59,3.59 -0.39,1.03 -0.96,1.88 -1.71,2.55 -0.75,0.67 -1.67,1.18 -2.76,1.51 -1.09,0.33 -2.39,0.5 -3.9,0.5l-3.74 0c-0.21,0 -0.41,-0.06 -0.6,-0.19 -0.19,-0.13 -0.28,-0.35 -0.28,-0.67l0 -14.14c0,-0.32 0.09,-0.54 0.28,-0.67 0.19,-0.12 0.39,-0.19 0.6,-0.19l4 0c1.53,0 2.82,0.18 3.88,0.53 1.05,0.36 1.94,0.87 2.66,1.54 0.71,0.66 1.25,1.47 1.62,2.42 0.37,0.94 0.55,2.01 0.55,3.21zm-2.46 0.09c0,-0.86 -0.12,-1.65 -0.36,-2.4 -0.24,-0.74 -0.61,-1.38 -1.11,-1.92 -0.51,-0.54 -1.15,-0.96 -1.92,-1.26 -0.77,-0.3 -1.77,-0.45 -2.99,-0.45l-2.39 0 0 12.34 2.42 0c1.13,0 2.08,-0.12 2.86,-0.38 0.77,-0.25 1.42,-0.64 1.94,-1.16 0.52,-0.52 0.91,-1.18 1.17,-1.97 0.26,-0.79 0.39,-1.72 0.39,-2.8zm18 7.19c0,0.15 -0.01,0.28 -0.03,0.39 -0.02,0.11 -0.05,0.2 -0.09,0.28 -0.05,0.08 -0.1,0.12 -0.16,0.16 -0.06,0.03 -0.13,0.05 -0.2,0.05l-8.48 0c-0.21,0 -0.41,-0.06 -0.6,-0.19 -0.19,-0.13 -0.28,-0.35 -0.28,-0.67l0 -14.14c0,-0.32 0.09,-0.54 0.28,-0.67 0.19,-0.12 0.39,-0.19 0.6,-0.19l8.38 0c0.08,0 0.14,0.02 0.2,0.05 0.06,0.03 0.11,0.08 0.14,0.16 0.03,0.08 0.07,0.17 0.09,0.28 0.02,0.11 0.03,0.25 0.03,0.41 0,0.15 -0.01,0.28 -0.03,0.39 -0.02,0.11 -0.06,0.2 -0.09,0.27 -0.04,0.07 -0.09,0.12 -0.14,0.15 -0.06,0.03 -0.13,0.05 -0.2,0.05l-6.91 0 0 4.97 5.93 0c0.07,0 0.14,0.02 0.2,0.05 0.05,0.04 0.11,0.09 0.15,0.16 0.04,0.07 0.07,0.15 0.09,0.27 0.02,0.12 0.03,0.25 0.03,0.4 0,0.15 -0.01,0.28 -0.03,0.38 -0.02,0.11 -0.05,0.19 -0.09,0.26 -0.04,0.07 -0.09,0.11 -0.15,0.14 -0.06,0.03 -0.13,0.04 -0.2,0.04l-5.93 0 0 5.67 7.01 0c0.08,0 0.14,0.02 0.2,0.05 0.06,0.03 0.11,0.08 0.16,0.15 0.04,0.07 0.08,0.16 0.09,0.27 0.02,0.11 0.03,0.25 0.03,0.41zm23.06 -10.33c0,0.79 -0.14,1.51 -0.44,2.15 -0.29,0.64 -0.7,1.18 -1.25,1.63 -0.54,0.45 -1.2,0.79 -1.99,1.04 -0.79,0.25 -1.72,0.37 -2.82,0.37l-2 0 0 5.7c0,0.07 -0.02,0.12 -0.06,0.17 -0.04,0.05 -0.11,0.09 -0.19,0.12 -0.09,0.03 -0.21,0.05 -0.36,0.08 -0.15,0.02 -0.34,0.03 -0.57,0.03 -0.23,0 -0.41,-0.01 -0.57,-0.03 -0.15,-0.02 -0.27,-0.05 -0.36,-0.08 -0.09,-0.03 -0.15,-0.07 -0.19,-0.12 -0.04,-0.05 -0.06,-0.1 -0.06,-0.17l0 -14.63c0,-0.33 0.1,-0.56 0.29,-0.7 0.19,-0.14 0.4,-0.21 0.64,-0.21l3.78 0c0.38,0 0.75,0.01 1.1,0.04 0.35,0.03 0.76,0.09 1.24,0.18 0.48,0.1 0.96,0.27 1.46,0.53 0.49,0.26 0.91,0.58 1.26,0.95 0.34,0.38 0.61,0.81 0.8,1.3 0.19,0.49 0.28,1.04 0.28,1.64zm-2.46 0.17c0,-0.65 -0.13,-1.19 -0.4,-1.62 -0.27,-0.43 -0.6,-0.76 -1,-0.97 -0.4,-0.21 -0.81,-0.35 -1.23,-0.4 -0.42,-0.06 -0.84,-0.09 -1.24,-0.09l-2.17 0 0 6.37 2.12 0c0.71,0 1.3,-0.08 1.77,-0.25 0.47,-0.16 0.86,-0.39 1.18,-0.68 0.32,-0.29 0.56,-0.64 0.72,-1.04 0.16,-0.4 0.25,-0.84 0.25,-1.32zm19.31 10.3c0.07,0.18 0.11,0.32 0.12,0.43 0,0.11 -0.03,0.19 -0.1,0.25 -0.08,0.05 -0.2,0.09 -0.36,0.11 -0.17,0.02 -0.39,0.02 -0.67,0.02 -0.28,0 -0.51,-0 -0.68,-0.02 -0.17,-0.01 -0.29,-0.03 -0.38,-0.06 -0.09,-0.03 -0.15,-0.07 -0.19,-0.12 -0.04,-0.05 -0.08,-0.11 -0.12,-0.18l-1.51 -3.86 -7.34 0 -1.45 3.81c-0.03,0.08 -0.06,0.14 -0.11,0.19 -0.05,0.05 -0.11,0.1 -0.2,0.13 -0.08,0.04 -0.21,0.06 -0.37,0.08 -0.16,0.02 -0.36,0.02 -0.62,0.02 -0.27,0 -0.48,-0.01 -0.65,-0.03 -0.17,-0.02 -0.29,-0.06 -0.36,-0.12 -0.07,-0.06 -0.1,-0.14 -0.1,-0.25 0.01,-0.11 0.04,-0.26 0.12,-0.44l5.92 -14.73c0.04,-0.09 0.09,-0.17 0.14,-0.22 0.06,-0.06 0.14,-0.1 0.26,-0.13 0.11,-0.03 0.26,-0.06 0.44,-0.07 0.18,-0.01 0.4,-0.02 0.67,-0.02 0.29,0 0.53,0 0.72,0.02 0.19,0.01 0.34,0.04 0.46,0.07 0.12,0.03 0.21,0.08 0.27,0.14 0.06,0.06 0.12,0.14 0.15,0.23l5.92 14.73zm-7.6 -13l-0.01 0 -3.04 7.9 6.14 0 -3.08 -7.9zm24.43 13.43c0,0.07 -0.02,0.12 -0.04,0.17 -0.03,0.05 -0.08,0.09 -0.18,0.13 -0.09,0.03 -0.22,0.05 -0.38,0.07 -0.16,0.02 -0.38,0.02 -0.65,0.02 -0.24,0 -0.43,-0.01 -0.58,-0.02 -0.15,-0.02 -0.27,-0.04 -0.36,-0.08 -0.09,-0.04 -0.16,-0.09 -0.21,-0.15 -0.05,-0.06 -0.09,-0.15 -0.13,-0.24l-1.62 -3.74c-0.19,-0.43 -0.39,-0.82 -0.6,-1.17 -0.2,-0.36 -0.45,-0.66 -0.73,-0.92 -0.28,-0.26 -0.61,-0.46 -1,-0.6 -0.38,-0.14 -0.84,-0.21 -1.38,-0.21l-1.57 0 0 6.76c0,0.07 -0.02,0.12 -0.06,0.17 -0.04,0.05 -0.11,0.09 -0.19,0.12 -0.09,0.03 -0.2,0.05 -0.35,0.08 -0.15,0.02 -0.34,0.03 -0.57,0.03 -0.23,0 -0.41,-0.01 -0.57,-0.03 -0.15,-0.02 -0.27,-0.05 -0.36,-0.08 -0.09,-0.03 -0.15,-0.07 -0.19,-0.12 -0.04,-0.05 -0.06,-0.1 -0.06,-0.17l0 -14.67c0,-0.32 0.09,-0.54 0.28,-0.67 0.19,-0.12 0.39,-0.19 0.6,-0.19l3.75 0c0.45,0 0.81,0.01 1.11,0.03 0.29,0.02 0.56,0.05 0.8,0.07 0.68,0.11 1.29,0.28 1.81,0.5 0.52,0.23 0.96,0.52 1.31,0.87 0.36,0.35 0.62,0.75 0.8,1.21 0.18,0.45 0.26,0.95 0.26,1.5 0,0.53 -0.08,1 -0.24,1.42 -0.16,0.42 -0.39,0.79 -0.69,1.11 -0.3,0.32 -0.66,0.6 -1.08,0.84 -0.42,0.23 -0.88,0.44 -1.41,0.6 0.29,0.12 0.55,0.26 0.79,0.44 0.24,0.18 0.46,0.39 0.66,0.63 0.2,0.25 0.4,0.53 0.58,0.85 0.18,0.32 0.36,0.68 0.54,1.08l1.58 3.49c0.13,0.29 0.21,0.5 0.24,0.62 0.04,0.12 0.06,0.21 0.06,0.28zm-3.53 -11.14c0,-0.62 -0.15,-1.15 -0.47,-1.58 -0.31,-0.43 -0.82,-0.74 -1.56,-0.92 -0.23,-0.06 -0.48,-0.1 -0.77,-0.12 -0.29,-0.03 -0.66,-0.04 -1.13,-0.04l-1.98 0 0 5.34 2.29 0c0.62,0 1.15,-0.07 1.61,-0.2 0.45,-0.14 0.82,-0.33 1.12,-0.57 0.3,-0.24 0.52,-0.53 0.67,-0.85 0.14,-0.33 0.21,-0.68 0.21,-1.07zm19.82 -3.49c0,0.15 -0.01,0.29 -0.03,0.4 -0.02,0.11 -0.05,0.2 -0.09,0.28 -0.04,0.07 -0.09,0.12 -0.15,0.15 -0.06,0.03 -0.13,0.05 -0.2,0.05l-4.96 0 0 13.75c0,0.07 -0.02,0.12 -0.06,0.17 -0.04,0.05 -0.1,0.09 -0.19,0.12 -0.09,0.03 -0.21,0.05 -0.36,0.08 -0.15,0.02 -0.34,0.03 -0.57,0.03 -0.22,0 -0.4,-0.01 -0.56,-0.03 -0.15,-0.02 -0.28,-0.05 -0.37,-0.08 -0.09,-0.03 -0.15,-0.07 -0.19,-0.12 -0.04,-0.05 -0.06,-0.1 -0.06,-0.17l0 -13.75 -4.96 0c-0.07,0 -0.13,-0.02 -0.2,-0.05 -0.06,-0.03 -0.11,-0.08 -0.14,-0.15 -0.03,-0.07 -0.07,-0.16 -0.09,-0.28 -0.02,-0.11 -0.03,-0.25 -0.03,-0.4 0,-0.16 0.01,-0.29 0.03,-0.41 0.02,-0.12 0.05,-0.21 0.09,-0.28 0.04,-0.08 0.08,-0.13 0.14,-0.16 0.06,-0.03 0.13,-0.05 0.2,-0.05l12.26 0c0.07,0 0.14,0.02 0.2,0.05 0.06,0.03 0.11,0.08 0.15,0.16 0.04,0.07 0.07,0.17 0.09,0.28 0.02,0.12 0.03,0.25 0.03,0.41zm7 14.63c0,0.07 -0.02,0.12 -0.06,0.17 -0.04,0.05 -0.1,0.09 -0.19,0.12 -0.09,0.03 -0.21,0.05 -0.36,0.08 -0.15,0.02 -0.34,0.03 -0.57,0.03 -0.22,0 -0.4,-0.01 -0.56,-0.03 -0.15,-0.02 -0.28,-0.05 -0.37,-0.08 -0.09,-0.03 -0.15,-0.07 -0.19,-0.12 -0.04,-0.05 -0.06,-0.1 -0.06,-0.17l0 -15.21c0,-0.07 0.02,-0.13 0.06,-0.17 0.04,-0.05 0.11,-0.09 0.2,-0.12 0.1,-0.03 0.22,-0.05 0.37,-0.08 0.15,-0.02 0.33,-0.03 0.54,-0.03 0.23,0 0.41,0.01 0.57,0.03 0.15,0.02 0.27,0.05 0.36,0.08 0.09,0.03 0.15,0.07 0.19,0.12 0.04,0.05 0.06,0.1 0.06,0.17l0 15.21zm18.59 -1.91c0,0.13 -0,0.24 -0.01,0.34 -0.01,0.1 -0.02,0.18 -0.05,0.26 -0.02,0.07 -0.05,0.14 -0.09,0.19 -0.04,0.05 -0.1,0.13 -0.19,0.21 -0.09,0.08 -0.28,0.21 -0.57,0.38 -0.29,0.17 -0.66,0.33 -1.09,0.49 -0.43,0.16 -0.93,0.29 -1.49,0.4 -0.56,0.11 -1.17,0.17 -1.84,0.17 -1.15,0 -2.18,-0.17 -3.11,-0.51 -0.92,-0.34 -1.71,-0.85 -2.36,-1.52 -0.65,-0.67 -1.15,-1.5 -1.5,-2.48 -0.35,-0.99 -0.53,-2.12 -0.53,-3.4 0,-1.32 0.19,-2.49 0.57,-3.52 0.38,-1.03 0.91,-1.9 1.59,-2.62 0.68,-0.72 1.5,-1.26 2.46,-1.63 0.95,-0.38 2.01,-0.56 3.16,-0.56 0.51,0 1.01,0.04 1.49,0.12 0.48,0.09 0.93,0.19 1.34,0.32 0.41,0.13 0.77,0.28 1.09,0.45 0.32,0.17 0.54,0.31 0.66,0.42 0.13,0.11 0.2,0.19 0.24,0.25 0.04,0.05 0.06,0.12 0.09,0.2 0.02,0.08 0.04,0.17 0.06,0.27 0.01,0.11 0.02,0.23 0.02,0.38 0,0.17 -0.01,0.31 -0.03,0.42 -0.02,0.12 -0.05,0.21 -0.08,0.29 -0.03,0.07 -0.08,0.13 -0.13,0.17 -0.05,0.04 -0.11,0.05 -0.18,0.05 -0.13,0 -0.31,-0.08 -0.54,-0.24 -0.23,-0.16 -0.52,-0.33 -0.89,-0.53 -0.36,-0.19 -0.8,-0.37 -1.32,-0.53 -0.52,-0.16 -1.14,-0.24 -1.86,-0.24 -0.79,0 -1.51,0.14 -2.15,0.42 -0.65,0.28 -1.2,0.7 -1.66,1.24 -0.46,0.55 -0.81,1.22 -1.07,2.01 -0.25,0.79 -0.38,1.69 -0.38,2.7 0,1.01 0.12,1.9 0.36,2.67 0.24,0.77 0.59,1.42 1.04,1.94 0.45,0.52 1.01,0.91 1.67,1.18 0.66,0.26 1.41,0.4 2.24,0.4 0.7,0 1.32,-0.08 1.85,-0.23 0.53,-0.16 0.97,-0.33 1.34,-0.52 0.37,-0.19 0.67,-0.36 0.91,-0.52 0.24,-0.16 0.43,-0.23 0.56,-0.23 0.07,0 0.12,0.01 0.17,0.04 0.05,0.03 0.08,0.07 0.11,0.14 0.03,0.07 0.05,0.17 0.06,0.29 0.02,0.12 0.02,0.28 0.02,0.46zm7.55 1.91c0,0.07 -0.02,0.12 -0.06,0.17 -0.04,0.05 -0.1,0.09 -0.19,0.12 -0.09,0.03 -0.21,0.05 -0.36,0.08 -0.16,0.02 -0.34,0.03 -0.57,0.03 -0.22,0 -0.4,-0.01 -0.56,-0.03 -0.15,-0.02 -0.28,-0.05 -0.37,-0.08 -0.09,-0.03 -0.15,-0.07 -0.19,-0.12 -0.04,-0.05 -0.06,-0.1 -0.06,-0.17l0 -15.21c0,-0.07 0.02,-0.13 0.06,-0.17 0.04,-0.05 0.11,-0.09 0.2,-0.12 0.1,-0.03 0.22,-0.05 0.37,-0.08 0.15,-0.02 0.33,-0.03 0.54,-0.03 0.23,0 0.41,0.01 0.57,0.03 0.15,0.02 0.27,0.05 0.36,0.08 0.09,0.03 0.15,0.07 0.19,0.12 0.04,0.05 0.06,0.1 0.06,0.17l0 15.21z"/>
     <path class="fil0" d="M462.96 87.22c0,0.79 -0.15,1.51 -0.44,2.15 -0.29,0.64 -0.7,1.18 -1.25,1.63 -0.54,0.45 -1.2,0.79 -1.99,1.04 -0.79,0.25 -1.72,0.37 -2.82,0.37l-2 0 0 5.7c0,0.07 -0.02,0.12 -0.06,0.17 -0.04,0.05 -0.11,0.09 -0.19,0.12 -0.09,0.03 -0.2,0.05 -0.35,0.08 -0.15,0.02 -0.34,0.03 -0.57,0.03 -0.23,0 -0.41,-0.01 -0.57,-0.03 -0.15,-0.02 -0.27,-0.05 -0.36,-0.08 -0.09,-0.03 -0.15,-0.07 -0.19,-0.12 -0.04,-0.05 -0.06,-0.1 -0.06,-0.17l0 -14.63c0,-0.33 0.1,-0.56 0.29,-0.7 0.19,-0.14 0.4,-0.21 0.64,-0.21l3.78 0c0.38,0 0.75,0.01 1.1,0.04 0.35,0.03 0.76,0.09 1.24,0.18 0.48,0.1 0.96,0.27 1.46,0.53 0.49,0.26 0.91,0.58 1.26,0.95 0.34,0.38 0.61,0.81 0.8,1.3 0.19,0.49 0.28,1.04 0.28,1.64zm-2.46 0.17c0,-0.65 -0.13,-1.19 -0.4,-1.62 -0.27,-0.43 -0.6,-0.76 -1,-0.97 -0.4,-0.21 -0.81,-0.35 -1.23,-0.4 -0.42,-0.06 -0.84,-0.09 -1.24,-0.09l-2.17 0 0 6.37 2.12 0c0.71,0 1.3,-0.08 1.77,-0.25 0.47,-0.16 0.86,-0.39 1.18,-0.68 0.32,-0.29 0.56,-0.64 0.72,-1.04 0.16,-0.4 0.25,-0.84 0.25,-1.32zm19.31 10.3c0.07,0.18 0.11,0.32 0.12,0.43 0,0.11 -0.03,0.19 -0.1,0.25 -0.08,0.05 -0.2,0.09 -0.36,0.11 -0.17,0.02 -0.39,0.02 -0.67,0.02 -0.28,0 -0.51,-0 -0.68,-0.02 -0.17,-0.01 -0.29,-0.03 -0.38,-0.06 -0.09,-0.03 -0.15,-0.07 -0.19,-0.12 -0.04,-0.05 -0.08,-0.11 -0.12,-0.18l-1.51 -3.86 -7.34 0 -1.45 3.81c-0.03,0.08 -0.06,0.14 -0.11,0.19 -0.05,0.05 -0.11,0.1 -0.2,0.13 -0.08,0.04 -0.21,0.06 -0.37,0.08 -0.16,0.02 -0.36,0.02 -0.62,0.02 -0.27,0 -0.48,-0.01 -0.65,-0.03 -0.17,-0.02 -0.29,-0.06 -0.36,-0.12 -0.07,-0.06 -0.1,-0.14 -0.1,-0.25 0.01,-0.11 0.04,-0.26 0.12,-0.44l5.92 -14.73c0.04,-0.09 0.09,-0.17 0.14,-0.22 0.06,-0.06 0.15,-0.1 0.26,-0.13 0.11,-0.03 0.26,-0.06 0.44,-0.07 0.18,-0.01 0.4,-0.02 0.68,-0.02 0.29,0 0.53,0 0.72,0.02 0.19,0.01 0.34,0.04 0.46,0.07 0.12,0.03 0.21,0.08 0.27,0.14 0.06,0.06 0.12,0.14 0.15,0.23l5.92 14.73zm-7.6 -13l-0.01 0 -3.04 7.9 6.14 0 -3.08 -7.9zm20.16 14.64c0.2,0.37 0.34,0.67 0.42,0.91 0.08,0.24 0.13,0.47 0.13,0.68 0,0.31 -0.07,0.59 -0.19,0.83 -0.13,0.25 -0.31,0.45 -0.54,0.62 -0.23,0.17 -0.51,0.3 -0.84,0.39 -0.32,0.09 -0.69,0.13 -1.1,0.13 -0.32,0 -0.62,-0.02 -0.9,-0.05 -0.28,-0.04 -0.53,-0.08 -0.74,-0.12 -0.21,-0.04 -0.35,-0.08 -0.42,-0.11 -0.08,-0.03 -0.13,-0.08 -0.16,-0.12 -0.03,-0.05 -0.06,-0.11 -0.07,-0.19 -0.01,-0.07 -0.02,-0.17 -0.02,-0.3 0,-0.25 0.03,-0.42 0.09,-0.51 0.06,-0.09 0.16,-0.13 0.29,-0.13l1.67 0c0.3,0 0.53,-0.05 0.69,-0.16 0.16,-0.11 0.25,-0.28 0.25,-0.5 0,-0.1 -0.03,-0.24 -0.08,-0.4 -0.06,-0.16 -0.13,-0.33 -0.22,-0.51l-0.62 -1.24c-0.82,-0.08 -1.62,-0.28 -2.37,-0.6 -0.75,-0.32 -1.44,-0.79 -2.05,-1.43 -0.61,-0.63 -1.1,-1.44 -1.45,-2.42 -0.35,-0.98 -0.53,-2.12 -0.53,-3.4 0,-1.31 0.19,-2.49 0.57,-3.52 0.38,-1.03 0.91,-1.9 1.59,-2.61 0.68,-0.72 1.5,-1.26 2.45,-1.63 0.95,-0.38 2.01,-0.56 3.16,-0.56 0.51,0 1.01,0.04 1.49,0.12 0.48,0.09 0.93,0.19 1.34,0.32 0.41,0.13 0.77,0.28 1.09,0.45 0.32,0.17 0.54,0.31 0.66,0.42 0.13,0.11 0.2,0.19 0.24,0.25 0.04,0.05 0.07,0.12 0.09,0.2 0.02,0.08 0.04,0.17 0.06,0.27 0.01,0.11 0.02,0.23 0.02,0.38 0,0.17 -0.01,0.31 -0.03,0.42 -0.02,0.12 -0.05,0.21 -0.08,0.29 -0.04,0.07 -0.08,0.13 -0.13,0.17 -0.05,0.04 -0.11,0.05 -0.19,0.05 -0.12,0 -0.31,-0.08 -0.53,-0.24 -0.23,-0.16 -0.53,-0.33 -0.88,-0.53 -0.36,-0.19 -0.8,-0.37 -1.31,-0.53 -0.51,-0.16 -1.13,-0.24 -1.85,-0.24 -0.79,0 -1.5,0.14 -2.14,0.42 -0.64,0.28 -1.19,0.7 -1.65,1.24 -0.46,0.55 -0.8,1.22 -1.06,2 -0.25,0.79 -0.38,1.69 -0.38,2.7 0,1.01 0.12,1.89 0.36,2.67 0.24,0.77 0.59,1.42 1.04,1.93 0.45,0.52 1,0.91 1.66,1.17 0.66,0.26 1.4,0.4 2.23,0.4 0.67,0 1.26,-0.08 1.79,-0.23 0.54,-0.15 0.99,-0.33 1.37,-0.52 0.38,-0.19 0.68,-0.37 0.92,-0.52 0.23,-0.16 0.42,-0.23 0.56,-0.23 0.06,0 0.12,0.01 0.16,0.04 0.05,0.02 0.08,0.07 0.11,0.14 0.03,0.07 0.05,0.17 0.07,0.29 0.01,0.12 0.02,0.28 0.02,0.46 0,0.13 -0.01,0.24 -0.01,0.34 -0.01,0.1 -0.02,0.18 -0.05,0.26 -0.02,0.07 -0.05,0.14 -0.09,0.2 -0.04,0.05 -0.1,0.12 -0.19,0.21 -0.09,0.08 -0.28,0.2 -0.57,0.38 -0.29,0.17 -0.65,0.33 -1.06,0.49 -0.41,0.16 -0.83,0.28 -1.26,0.37 -0.43,0.09 -0.83,0.15 -1.21,0.17l0.37 0.75zm23.81 -9.01c0,1.28 -0.17,2.44 -0.5,3.46 -0.34,1.03 -0.84,1.9 -1.51,2.62 -0.67,0.72 -1.51,1.28 -2.52,1.66 -1.01,0.39 -2.19,0.58 -3.53,0.58 -1.33,0 -2.47,-0.18 -3.44,-0.53 -0.97,-0.36 -1.77,-0.87 -2.4,-1.55 -0.63,-0.68 -1.1,-1.52 -1.41,-2.52 -0.31,-1 -0.47,-2.16 -0.47,-3.46 0,-1.25 0.17,-2.39 0.5,-3.41 0.34,-1.02 0.84,-1.89 1.52,-2.6 0.67,-0.71 1.51,-1.26 2.52,-1.65 1,-0.39 2.18,-0.58 3.53,-0.58 1.3,0 2.43,0.18 3.39,0.53 0.96,0.35 1.77,0.86 2.41,1.53 0.64,0.67 1.12,1.5 1.43,2.5 0.31,0.99 0.47,2.13 0.47,3.41zm-2.49 0.15c0,-0.89 -0.09,-1.73 -0.27,-2.5 -0.18,-0.77 -0.47,-1.44 -0.88,-2.01 -0.41,-0.56 -0.96,-1.01 -1.65,-1.33 -0.69,-0.32 -1.55,-0.48 -2.56,-0.48 -1.02,0 -1.87,0.17 -2.56,0.51 -0.69,0.34 -1.25,0.8 -1.68,1.37 -0.43,0.57 -0.74,1.24 -0.93,2 -0.19,0.76 -0.28,1.56 -0.28,2.4 0,0.93 0.09,1.78 0.26,2.57 0.17,0.79 0.46,1.46 0.87,2.03 0.4,0.56 0.95,1 1.64,1.32 0.68,0.31 1.55,0.47 2.58,0.47 1.03,0 1.89,-0.17 2.59,-0.52 0.7,-0.34 1.26,-0.8 1.69,-1.39 0.42,-0.58 0.73,-1.26 0.91,-2.02 0.18,-0.76 0.27,-1.58 0.27,-2.43zm-2.35 -11.83c0,-0.11 0.06,-0.18 0.19,-0.22 0.13,-0.04 0.35,-0.05 0.66,-0.05 0.33,0 0.54,0.03 0.65,0.09 0.1,0.06 0.15,0.2 0.15,0.4 0,0.76 -0.23,1.37 -0.7,1.8 -0.47,0.44 -1.13,0.66 -1.98,0.66 -0.48,0 -0.9,-0.08 -1.26,-0.22 -0.35,-0.15 -0.67,-0.31 -0.97,-0.49 -0.29,-0.18 -0.57,-0.33 -0.83,-0.48 -0.26,-0.15 -0.53,-0.22 -0.82,-0.22 -0.38,0 -0.64,0.1 -0.8,0.31 -0.15,0.2 -0.23,0.48 -0.23,0.82 0,0.06 -0.02,0.1 -0.06,0.14 -0.04,0.04 -0.1,0.07 -0.17,0.09 -0.07,0.02 -0.16,0.03 -0.27,0.04 -0.1,0 -0.22,0 -0.35,0 -0.33,0 -0.54,-0.03 -0.65,-0.1 -0.1,-0.06 -0.15,-0.2 -0.15,-0.39 0,-0.39 0.06,-0.74 0.19,-1.05 0.13,-0.31 0.31,-0.56 0.54,-0.77 0.24,-0.2 0.52,-0.36 0.85,-0.47 0.33,-0.11 0.7,-0.17 1.1,-0.17 0.49,0 0.9,0.08 1.26,0.22 0.35,0.15 0.67,0.31 0.97,0.48 0.29,0.17 0.56,0.33 0.82,0.48 0.26,0.15 0.53,0.22 0.84,0.22 0.31,0 0.56,-0.08 0.75,-0.25 0.18,-0.17 0.27,-0.46 0.27,-0.88zm20.49 18.92c0,0.15 -0.01,0.28 -0.03,0.39 -0.02,0.11 -0.05,0.2 -0.09,0.28 -0.05,0.08 -0.1,0.12 -0.16,0.16 -0.06,0.03 -0.12,0.05 -0.2,0.05l-8.48 0c-0.21,0 -0.41,-0.06 -0.6,-0.19 -0.19,-0.13 -0.28,-0.35 -0.28,-0.67l0 -14.14c0,-0.32 0.09,-0.54 0.28,-0.67 0.19,-0.12 0.39,-0.19 0.6,-0.19l8.38 0c0.08,0 0.14,0.02 0.2,0.05 0.06,0.03 0.11,0.08 0.14,0.16 0.03,0.08 0.07,0.17 0.09,0.28 0.02,0.11 0.03,0.25 0.03,0.41 0,0.15 -0.01,0.28 -0.03,0.39 -0.02,0.11 -0.06,0.2 -0.09,0.27 -0.04,0.07 -0.09,0.12 -0.14,0.15 -0.06,0.03 -0.13,0.05 -0.2,0.05l-6.91 0 0 4.97 5.93 0c0.08,0 0.14,0.02 0.2,0.05 0.05,0.04 0.11,0.09 0.15,0.16 0.04,0.07 0.07,0.15 0.09,0.27 0.02,0.12 0.03,0.25 0.03,0.4 0,0.15 -0.01,0.28 -0.03,0.38 -0.02,0.11 -0.05,0.19 -0.09,0.26 -0.04,0.07 -0.09,0.11 -0.15,0.14 -0.06,0.03 -0.13,0.04 -0.2,0.04l-5.93 0 0 5.67 7.01 0c0.08,0 0.14,0.02 0.2,0.05 0.06,0.03 0.11,0.08 0.16,0.15 0.04,0.07 0.08,0.16 0.09,0.27 0.02,0.11 0.03,0.25 0.03,0.41zm15.13 -3.57c0,0.74 -0.15,1.4 -0.46,1.98 -0.31,0.58 -0.73,1.07 -1.27,1.48 -0.54,0.4 -1.18,0.71 -1.91,0.91 -0.74,0.2 -1.52,0.31 -2.37,0.31 -0.59,0 -1.14,-0.05 -1.64,-0.13 -0.51,-0.09 -0.96,-0.21 -1.35,-0.33 -0.4,-0.13 -0.73,-0.27 -1,-0.41 -0.26,-0.14 -0.46,-0.26 -0.56,-0.36 -0.11,-0.1 -0.18,-0.22 -0.23,-0.37 -0.05,-0.15 -0.07,-0.35 -0.07,-0.6 0,-0.18 0.01,-0.33 0.03,-0.45 0.02,-0.12 0.05,-0.21 0.08,-0.28 0.04,-0.08 0.08,-0.12 0.14,-0.15 0.06,-0.03 0.12,-0.04 0.19,-0.04 0.13,0 0.31,0.07 0.54,0.21 0.23,0.14 0.53,0.29 0.89,0.45 0.36,0.16 0.8,0.31 1.32,0.46 0.51,0.14 1.11,0.21 1.78,0.21 0.51,0 0.98,-0.06 1.4,-0.18 0.42,-0.12 0.79,-0.29 1.09,-0.52 0.31,-0.22 0.54,-0.5 0.7,-0.82 0.16,-0.33 0.25,-0.7 0.25,-1.11 0,-0.45 -0.11,-0.83 -0.34,-1.15 -0.23,-0.32 -0.53,-0.6 -0.9,-0.84 -0.38,-0.24 -0.8,-0.46 -1.28,-0.66 -0.48,-0.2 -0.97,-0.4 -1.47,-0.61 -0.5,-0.21 -0.99,-0.44 -1.46,-0.69 -0.47,-0.25 -0.9,-0.55 -1.27,-0.89 -0.37,-0.34 -0.68,-0.74 -0.9,-1.21 -0.23,-0.46 -0.35,-1.01 -0.35,-1.65 0,-0.66 0.13,-1.25 0.4,-1.77 0.27,-0.51 0.64,-0.95 1.12,-1.3 0.48,-0.35 1.05,-0.62 1.7,-0.8 0.66,-0.18 1.37,-0.28 2.13,-0.28 0.39,0 0.78,0.03 1.18,0.09 0.4,0.06 0.77,0.14 1.12,0.25 0.35,0.1 0.66,0.22 0.94,0.34 0.27,0.12 0.45,0.23 0.54,0.3 0.09,0.08 0.14,0.14 0.17,0.18 0.03,0.05 0.05,0.1 0.06,0.17 0.02,0.07 0.03,0.15 0.04,0.25 0.01,0.1 0.01,0.22 0.01,0.38 0,0.15 -0,0.28 -0.02,0.39 -0.01,0.11 -0.04,0.21 -0.06,0.29 -0.02,0.08 -0.06,0.13 -0.11,0.17 -0.05,0.04 -0.11,0.05 -0.17,0.05 -0.1,0 -0.26,-0.06 -0.47,-0.17 -0.21,-0.12 -0.47,-0.24 -0.79,-0.39 -0.31,-0.14 -0.67,-0.27 -1.1,-0.39 -0.42,-0.12 -0.89,-0.18 -1.42,-0.18 -0.49,0 -0.92,0.06 -1.28,0.18 -0.36,0.12 -0.67,0.28 -0.9,0.47 -0.23,0.2 -0.41,0.43 -0.53,0.69 -0.12,0.27 -0.18,0.56 -0.18,0.86 0,0.44 0.11,0.82 0.34,1.14 0.23,0.32 0.53,0.6 0.91,0.84 0.38,0.25 0.81,0.47 1.29,0.67 0.48,0.2 0.97,0.41 1.48,0.62 0.5,0.21 0.99,0.43 1.47,0.68 0.48,0.25 0.91,0.54 1.29,0.88 0.38,0.34 0.68,0.74 0.91,1.2 0.23,0.46 0.35,1 0.35,1.63zm-272.88 30.61c0,0.74 -0.15,1.4 -0.46,1.98 -0.31,0.58 -0.73,1.07 -1.27,1.48 -0.54,0.4 -1.18,0.71 -1.91,0.91 -0.74,0.2 -1.52,0.31 -2.37,0.31 -0.59,0 -1.14,-0.05 -1.64,-0.13 -0.51,-0.09 -0.96,-0.2 -1.36,-0.33 -0.4,-0.13 -0.73,-0.27 -1,-0.4 -0.26,-0.14 -0.46,-0.26 -0.56,-0.36 -0.11,-0.1 -0.18,-0.22 -0.23,-0.37 -0.05,-0.15 -0.07,-0.35 -0.07,-0.6 0,-0.18 0.01,-0.33 0.03,-0.45 0.02,-0.12 0.05,-0.21 0.08,-0.28 0.04,-0.08 0.08,-0.12 0.14,-0.15 0.06,-0.03 0.12,-0.04 0.19,-0.04 0.13,0 0.31,0.07 0.54,0.21 0.23,0.14 0.53,0.29 0.89,0.45 0.36,0.16 0.8,0.31 1.32,0.45 0.51,0.14 1.11,0.21 1.78,0.21 0.51,0 0.98,-0.06 1.4,-0.18 0.42,-0.12 0.79,-0.29 1.09,-0.52 0.31,-0.22 0.54,-0.5 0.7,-0.82 0.16,-0.33 0.25,-0.7 0.25,-1.11 0,-0.45 -0.11,-0.83 -0.34,-1.15 -0.23,-0.32 -0.53,-0.6 -0.9,-0.84 -0.38,-0.24 -0.8,-0.46 -1.28,-0.66 -0.48,-0.2 -0.97,-0.4 -1.47,-0.61 -0.5,-0.21 -0.99,-0.44 -1.46,-0.69 -0.48,-0.25 -0.9,-0.55 -1.27,-0.89 -0.37,-0.34 -0.67,-0.74 -0.9,-1.21 -0.23,-0.46 -0.35,-1.01 -0.35,-1.65 0,-0.67 0.13,-1.25 0.4,-1.77 0.27,-0.51 0.64,-0.95 1.12,-1.3 0.48,-0.35 1.05,-0.62 1.7,-0.8 0.66,-0.18 1.37,-0.28 2.13,-0.28 0.39,0 0.78,0.03 1.18,0.09 0.4,0.06 0.77,0.14 1.12,0.25 0.35,0.1 0.66,0.22 0.94,0.34 0.27,0.12 0.45,0.23 0.54,0.31 0.09,0.08 0.14,0.14 0.17,0.18 0.03,0.05 0.05,0.11 0.06,0.17 0.02,0.07 0.03,0.15 0.04,0.25 0.01,0.1 0.01,0.22 0.01,0.38 0,0.15 -0.01,0.28 -0.02,0.39 -0.01,0.11 -0.04,0.21 -0.07,0.29 -0.02,0.08 -0.06,0.13 -0.11,0.17 -0.05,0.04 -0.11,0.05 -0.17,0.05 -0.1,0 -0.26,-0.06 -0.47,-0.17 -0.22,-0.12 -0.48,-0.24 -0.79,-0.39 -0.31,-0.14 -0.67,-0.27 -1.1,-0.39 -0.42,-0.12 -0.89,-0.18 -1.43,-0.18 -0.49,0 -0.92,0.06 -1.28,0.18 -0.36,0.12 -0.67,0.28 -0.9,0.47 -0.23,0.2 -0.41,0.43 -0.53,0.69 -0.12,0.27 -0.18,0.56 -0.18,0.86 0,0.44 0.11,0.82 0.34,1.14 0.23,0.32 0.53,0.6 0.91,0.84 0.38,0.25 0.81,0.47 1.29,0.67 0.48,0.21 0.97,0.41 1.48,0.62 0.5,0.21 0.99,0.44 1.47,0.69 0.48,0.25 0.91,0.54 1.29,0.88 0.38,0.34 0.68,0.74 0.91,1.2 0.23,0.46 0.35,1 0.35,1.63zm20.22 -3.66c0,1.28 -0.17,2.44 -0.5,3.46 -0.34,1.03 -0.84,1.9 -1.51,2.62 -0.67,0.72 -1.51,1.27 -2.52,1.66 -1.01,0.39 -2.19,0.58 -3.53,0.58 -1.33,0 -2.47,-0.18 -3.44,-0.53 -0.97,-0.36 -1.77,-0.87 -2.4,-1.55 -0.63,-0.68 -1.1,-1.52 -1.41,-2.52 -0.31,-1 -0.47,-2.16 -0.47,-3.46 0,-1.25 0.17,-2.39 0.5,-3.41 0.34,-1.02 0.84,-1.89 1.52,-2.6 0.67,-0.71 1.51,-1.26 2.52,-1.65 1.01,-0.39 2.18,-0.58 3.53,-0.58 1.3,0 2.43,0.18 3.39,0.53 0.96,0.35 1.77,0.86 2.41,1.53 0.64,0.67 1.12,1.5 1.44,2.5 0.31,0.99 0.47,2.13 0.47,3.41zm-2.49 0.15c0,-0.89 -0.09,-1.73 -0.26,-2.5 -0.18,-0.77 -0.47,-1.44 -0.88,-2.01 -0.41,-0.56 -0.96,-1.01 -1.65,-1.33 -0.69,-0.32 -1.55,-0.48 -2.56,-0.48 -1.02,0 -1.87,0.17 -2.56,0.51 -0.69,0.34 -1.25,0.8 -1.68,1.37 -0.43,0.57 -0.74,1.24 -0.93,2 -0.19,0.76 -0.28,1.56 -0.28,2.4 0,0.93 0.09,1.78 0.26,2.57 0.17,0.79 0.46,1.46 0.87,2.03 0.4,0.57 0.95,1 1.64,1.32 0.68,0.31 1.55,0.47 2.58,0.47 1.03,0 1.89,-0.17 2.59,-0.51 0.7,-0.34 1.26,-0.8 1.69,-1.39 0.42,-0.58 0.73,-1.26 0.91,-2.02 0.18,-0.76 0.27,-1.58 0.27,-2.43zm20.1 5.73c0,0.13 -0.01,0.24 -0.01,0.34 -0.01,0.1 -0.02,0.18 -0.05,0.25 -0.02,0.07 -0.05,0.14 -0.09,0.2 -0.04,0.05 -0.1,0.13 -0.19,0.2 -0.09,0.08 -0.28,0.21 -0.57,0.38 -0.29,0.17 -0.66,0.33 -1.09,0.49 -0.43,0.16 -0.93,0.29 -1.49,0.4 -0.56,0.11 -1.17,0.17 -1.84,0.17 -1.15,0 -2.18,-0.17 -3.11,-0.51 -0.92,-0.34 -1.71,-0.85 -2.36,-1.52 -0.65,-0.67 -1.15,-1.5 -1.5,-2.48 -0.35,-0.99 -0.53,-2.12 -0.53,-3.4 0,-1.32 0.19,-2.49 0.57,-3.52 0.38,-1.03 0.91,-1.9 1.59,-2.62 0.68,-0.72 1.5,-1.26 2.46,-1.63 0.95,-0.38 2.01,-0.56 3.16,-0.56 0.51,0 1.01,0.04 1.49,0.12 0.48,0.09 0.93,0.19 1.34,0.32 0.41,0.13 0.77,0.28 1.09,0.45 0.32,0.17 0.54,0.31 0.66,0.42 0.13,0.11 0.2,0.19 0.24,0.25 0.04,0.05 0.06,0.12 0.09,0.2 0.02,0.08 0.04,0.17 0.06,0.27 0.01,0.11 0.02,0.23 0.02,0.38 0,0.17 -0.01,0.31 -0.03,0.42 -0.02,0.12 -0.05,0.21 -0.08,0.29 -0.03,0.07 -0.08,0.13 -0.13,0.17 -0.05,0.04 -0.11,0.05 -0.18,0.05 -0.13,0 -0.31,-0.08 -0.54,-0.24 -0.23,-0.16 -0.52,-0.33 -0.88,-0.53 -0.36,-0.19 -0.8,-0.37 -1.32,-0.53 -0.52,-0.16 -1.14,-0.24 -1.86,-0.24 -0.79,0 -1.51,0.14 -2.15,0.42 -0.65,0.28 -1.2,0.7 -1.66,1.24 -0.46,0.55 -0.81,1.22 -1.07,2.01 -0.25,0.79 -0.38,1.69 -0.38,2.7 0,1.01 0.12,1.9 0.36,2.67 0.24,0.77 0.59,1.42 1.04,1.94 0.45,0.52 1.01,0.91 1.67,1.18 0.66,0.26 1.41,0.4 2.24,0.4 0.7,0 1.32,-0.08 1.85,-0.23 0.53,-0.16 0.97,-0.33 1.34,-0.52 0.37,-0.19 0.68,-0.36 0.91,-0.52 0.24,-0.16 0.43,-0.23 0.56,-0.23 0.06,0 0.12,0.01 0.17,0.04 0.05,0.03 0.08,0.07 0.11,0.14 0.03,0.07 0.05,0.17 0.06,0.29 0.01,0.12 0.02,0.28 0.02,0.46zm7.55 1.91c0,0.07 -0.02,0.12 -0.06,0.17 -0.04,0.05 -0.1,0.09 -0.19,0.12 -0.09,0.03 -0.21,0.05 -0.36,0.08 -0.16,0.02 -0.34,0.03 -0.57,0.03 -0.22,0 -0.4,-0.01 -0.56,-0.03 -0.15,-0.02 -0.28,-0.05 -0.37,-0.08 -0.09,-0.03 -0.15,-0.07 -0.19,-0.12 -0.04,-0.05 -0.06,-0.1 -0.06,-0.17l0 -15.21c0,-0.07 0.02,-0.13 0.06,-0.17 0.04,-0.05 0.11,-0.09 0.2,-0.12 0.1,-0.03 0.22,-0.05 0.37,-0.08 0.15,-0.02 0.33,-0.03 0.54,-0.03 0.23,0 0.41,0.01 0.57,0.03 0.15,0.02 0.27,0.05 0.36,0.08 0.09,0.03 0.15,0.07 0.19,0.12 0.04,0.05 0.06,0.1 0.06,0.17l0 15.21zm16.63 -0.56c0,0.15 -0.01,0.28 -0.03,0.39 -0.02,0.11 -0.05,0.2 -0.09,0.28 -0.05,0.08 -0.1,0.12 -0.16,0.16 -0.06,0.03 -0.13,0.05 -0.2,0.05l-8.48 0c-0.21,0 -0.41,-0.06 -0.6,-0.19 -0.19,-0.13 -0.28,-0.35 -0.28,-0.67l0 -14.14c0,-0.32 0.09,-0.54 0.28,-0.67 0.19,-0.13 0.39,-0.19 0.6,-0.19l8.38 0c0.08,0 0.14,0.02 0.2,0.05 0.06,0.03 0.11,0.08 0.15,0.16 0.03,0.08 0.06,0.17 0.09,0.28 0.02,0.11 0.03,0.25 0.03,0.41 0,0.15 -0.01,0.27 -0.03,0.39 -0.02,0.11 -0.06,0.2 -0.09,0.27 -0.04,0.07 -0.09,0.12 -0.15,0.15 -0.06,0.03 -0.12,0.05 -0.2,0.05l-6.91 0 0 4.97 5.93 0c0.08,0 0.14,0.02 0.2,0.05 0.05,0.04 0.11,0.09 0.15,0.16 0.04,0.07 0.07,0.15 0.09,0.27 0.02,0.12 0.03,0.25 0.03,0.4 0,0.15 -0.01,0.28 -0.03,0.38 -0.02,0.11 -0.05,0.19 -0.09,0.26 -0.04,0.07 -0.09,0.11 -0.15,0.14 -0.06,0.03 -0.13,0.04 -0.2,0.04l-5.93 0 0 5.67 7.01 0c0.08,0 0.14,0.02 0.2,0.05 0.06,0.03 0.11,0.08 0.16,0.15 0.04,0.07 0.08,0.16 0.09,0.27 0.02,0.11 0.03,0.25 0.03,0.41zm16.98 -14.07c0,0.15 -0.01,0.29 -0.03,0.4 -0.02,0.11 -0.05,0.2 -0.09,0.28 -0.04,0.07 -0.09,0.12 -0.15,0.15 -0.06,0.03 -0.13,0.05 -0.2,0.05l-4.96 0 0 13.75c0,0.07 -0.02,0.12 -0.06,0.17 -0.04,0.05 -0.1,0.09 -0.19,0.12 -0.09,0.03 -0.21,0.05 -0.36,0.08 -0.15,0.02 -0.34,0.03 -0.57,0.03 -0.22,0 -0.4,-0.01 -0.56,-0.03 -0.15,-0.02 -0.28,-0.05 -0.37,-0.08 -0.09,-0.03 -0.16,-0.07 -0.19,-0.12 -0.04,-0.05 -0.06,-0.1 -0.06,-0.17l0 -13.75 -4.96 0c-0.07,0 -0.13,-0.02 -0.2,-0.05 -0.06,-0.03 -0.11,-0.08 -0.14,-0.15 -0.03,-0.07 -0.06,-0.16 -0.09,-0.28 -0.02,-0.11 -0.03,-0.25 -0.03,-0.4 0,-0.16 0.01,-0.29 0.03,-0.41 0.02,-0.12 0.06,-0.21 0.09,-0.28 0.04,-0.08 0.08,-0.13 0.14,-0.16 0.06,-0.03 0.13,-0.05 0.2,-0.05l12.27 0c0.07,0 0.13,0.02 0.2,0.05 0.06,0.03 0.11,0.08 0.15,0.16 0.04,0.07 0.07,0.17 0.09,0.28 0.02,0.12 0.03,0.26 0.03,0.41z"/>
     <path class="fil0" d="M368.79 128.29c0.07,0.18 0.11,0.32 0.12,0.44 0.01,0.11 -0.03,0.19 -0.1,0.25 -0.07,0.05 -0.19,0.09 -0.36,0.11 -0.17,0.02 -0.39,0.02 -0.67,0.02 -0.28,0 -0.51,-0 -0.68,-0.02 -0.17,-0.01 -0.29,-0.03 -0.38,-0.06 -0.09,-0.03 -0.15,-0.07 -0.19,-0.12 -0.04,-0.05 -0.08,-0.11 -0.12,-0.18l-1.51 -3.86 -7.34 0 -1.45 3.81c-0.03,0.08 -0.06,0.14 -0.11,0.19 -0.05,0.05 -0.11,0.1 -0.2,0.13 -0.08,0.04 -0.21,0.06 -0.37,0.08 -0.16,0.02 -0.36,0.02 -0.62,0.02 -0.27,0 -0.48,-0.01 -0.65,-0.03 -0.17,-0.02 -0.29,-0.06 -0.35,-0.12 -0.07,-0.06 -0.1,-0.14 -0.1,-0.25 0.01,-0.11 0.04,-0.26 0.12,-0.44l5.92 -14.73c0.04,-0.09 0.09,-0.17 0.14,-0.22 0.06,-0.06 0.15,-0.1 0.26,-0.13 0.11,-0.03 0.26,-0.06 0.44,-0.07 0.18,-0.01 0.4,-0.02 0.67,-0.02 0.29,0 0.53,0 0.72,0.02 0.19,0.01 0.34,0.04 0.46,0.07 0.12,0.03 0.21,0.08 0.27,0.14 0.06,0.06 0.12,0.14 0.15,0.23l5.92 14.73zm-7.6 -13l-0.01 0 -3.04 7.9 6.14 0 -3.08 -7.9zm1.63 -6.48c0.1,-0.11 0.19,-0.19 0.29,-0.25 0.09,-0.06 0.2,-0.1 0.32,-0.13 0.12,-0.03 0.26,-0.06 0.42,-0.07 0.16,-0.01 0.36,-0.02 0.59,-0.02 0.27,0 0.49,0.02 0.64,0.05 0.15,0.04 0.27,0.08 0.33,0.14 0.06,0.06 0.08,0.12 0.06,0.2 -0.02,0.08 -0.07,0.15 -0.16,0.23l-3.1 2.6c-0.09,0.08 -0.18,0.15 -0.26,0.19 -0.07,0.05 -0.16,0.08 -0.26,0.11 -0.1,0.03 -0.21,0.05 -0.35,0.06 -0.13,0.01 -0.29,0.02 -0.48,0.02 -0.21,0 -0.37,-0.01 -0.49,-0.03 -0.12,-0.02 -0.2,-0.05 -0.24,-0.1 -0.05,-0.05 -0.06,-0.1 -0.04,-0.17 0.02,-0.06 0.06,-0.14 0.15,-0.23l2.59 -2.62zm22.79 19.91c0,0.07 -0.01,0.12 -0.04,0.17 -0.03,0.05 -0.08,0.09 -0.18,0.13 -0.09,0.03 -0.22,0.05 -0.38,0.07 -0.16,0.02 -0.38,0.02 -0.65,0.02 -0.24,0 -0.43,-0.01 -0.58,-0.02 -0.15,-0.02 -0.27,-0.04 -0.36,-0.08 -0.09,-0.04 -0.16,-0.09 -0.21,-0.16 -0.05,-0.06 -0.09,-0.15 -0.13,-0.24l-1.62 -3.74c-0.19,-0.43 -0.39,-0.81 -0.6,-1.17 -0.2,-0.36 -0.45,-0.66 -0.73,-0.92 -0.28,-0.26 -0.61,-0.45 -1,-0.6 -0.38,-0.14 -0.84,-0.21 -1.38,-0.21l-1.57 0 0 6.76c0,0.07 -0.02,0.12 -0.06,0.17 -0.04,0.05 -0.11,0.09 -0.19,0.12 -0.09,0.03 -0.21,0.05 -0.36,0.08 -0.15,0.02 -0.34,0.03 -0.57,0.03 -0.23,0 -0.41,-0.01 -0.57,-0.03 -0.15,-0.02 -0.27,-0.05 -0.36,-0.08 -0.09,-0.03 -0.15,-0.07 -0.19,-0.12 -0.04,-0.05 -0.06,-0.1 -0.06,-0.17l0 -14.68c0,-0.32 0.09,-0.54 0.28,-0.67 0.19,-0.13 0.39,-0.19 0.6,-0.19l3.75 0c0.45,0 0.81,0.01 1.11,0.03 0.29,0.02 0.56,0.05 0.8,0.07 0.68,0.11 1.29,0.28 1.81,0.5 0.52,0.23 0.96,0.52 1.31,0.87 0.36,0.35 0.62,0.75 0.8,1.21 0.18,0.45 0.27,0.95 0.27,1.5 0,0.53 -0.08,1 -0.24,1.42 -0.16,0.42 -0.39,0.79 -0.69,1.11 -0.3,0.32 -0.66,0.6 -1.08,0.84 -0.42,0.23 -0.88,0.44 -1.41,0.6 0.29,0.12 0.55,0.26 0.79,0.44 0.24,0.18 0.46,0.39 0.66,0.63 0.2,0.25 0.4,0.53 0.58,0.85 0.18,0.32 0.36,0.68 0.54,1.08l1.58 3.49c0.13,0.29 0.21,0.5 0.24,0.62 0.04,0.12 0.06,0.21 0.06,0.28zm-3.53 -11.14c0,-0.62 -0.16,-1.15 -0.47,-1.58 -0.31,-0.43 -0.82,-0.74 -1.56,-0.92 -0.23,-0.06 -0.48,-0.1 -0.77,-0.12 -0.29,-0.03 -0.66,-0.04 -1.13,-0.04l-1.98 0 0 5.34 2.29 0c0.62,0 1.15,-0.07 1.61,-0.2 0.45,-0.14 0.82,-0.32 1.12,-0.56 0.3,-0.24 0.52,-0.53 0.67,-0.85 0.14,-0.33 0.21,-0.68 0.21,-1.07zm11.38 11.14c0,0.07 -0.02,0.12 -0.05,0.17 -0.04,0.05 -0.1,0.09 -0.19,0.12 -0.09,0.03 -0.21,0.05 -0.36,0.08 -0.15,0.02 -0.34,0.03 -0.57,0.03 -0.22,0 -0.4,-0.01 -0.56,-0.03 -0.15,-0.02 -0.28,-0.05 -0.37,-0.08 -0.09,-0.03 -0.15,-0.07 -0.19,-0.12 -0.04,-0.05 -0.06,-0.1 -0.06,-0.17l0 -15.21c0,-0.07 0.02,-0.13 0.06,-0.17 0.04,-0.05 0.11,-0.09 0.2,-0.12 0.1,-0.03 0.22,-0.05 0.37,-0.08 0.15,-0.02 0.33,-0.03 0.54,-0.03 0.23,0 0.41,0.01 0.57,0.03 0.15,0.02 0.27,0.05 0.36,0.08 0.09,0.03 0.15,0.07 0.19,0.12 0.04,0.05 0.05,0.1 0.05,0.17l0 15.21zm20.02 -0.43c0.07,0.18 0.11,0.32 0.12,0.44 0,0.11 -0.03,0.19 -0.1,0.25 -0.07,0.05 -0.2,0.09 -0.36,0.11 -0.17,0.02 -0.39,0.02 -0.68,0.02 -0.28,0 -0.51,-0 -0.67,-0.02 -0.17,-0.01 -0.29,-0.03 -0.38,-0.06 -0.09,-0.03 -0.15,-0.07 -0.19,-0.12 -0.04,-0.05 -0.08,-0.11 -0.12,-0.18l-1.51 -3.86 -7.34 0 -1.45 3.81c-0.03,0.08 -0.06,0.14 -0.11,0.19 -0.05,0.05 -0.11,0.1 -0.2,0.13 -0.08,0.04 -0.21,0.06 -0.37,0.08 -0.16,0.02 -0.36,0.02 -0.62,0.02 -0.27,0 -0.48,-0.01 -0.65,-0.03 -0.17,-0.02 -0.29,-0.06 -0.35,-0.12 -0.07,-0.06 -0.1,-0.14 -0.1,-0.25 0.01,-0.11 0.04,-0.26 0.12,-0.44l5.92 -14.73c0.04,-0.09 0.09,-0.17 0.14,-0.22 0.06,-0.06 0.15,-0.1 0.26,-0.13 0.11,-0.03 0.26,-0.06 0.44,-0.07 0.18,-0.01 0.4,-0.02 0.67,-0.02 0.29,0 0.53,0 0.72,0.02 0.19,0.01 0.34,0.04 0.46,0.07 0.12,0.03 0.21,0.08 0.27,0.14 0.07,0.06 0.12,0.14 0.15,0.23l5.92 14.73zm-7.6 -13l-0.01 0 -3.04 7.9 6.14 0 -3.08 -7.9zm28.13 12.82c0,0.17 -0.01,0.31 -0.03,0.41 -0.02,0.11 -0.05,0.2 -0.09,0.28 -0.04,0.08 -0.09,0.13 -0.15,0.17 -0.06,0.04 -0.13,0.05 -0.22,0.05l-7.81 0c-0.21,0 -0.41,-0.06 -0.6,-0.19 -0.19,-0.13 -0.28,-0.35 -0.28,-0.67l0 -14.67c0,-0.07 0.02,-0.13 0.06,-0.17 0.04,-0.05 0.1,-0.09 0.19,-0.12 0.09,-0.03 0.21,-0.05 0.37,-0.08 0.16,-0.02 0.34,-0.03 0.56,-0.03 0.23,0 0.41,0.01 0.57,0.03 0.15,0.02 0.27,0.05 0.36,0.08 0.09,0.03 0.15,0.07 0.19,0.12 0.04,0.05 0.06,0.1 0.06,0.17l0 13.7 6.34 0c0.08,0 0.15,0.02 0.22,0.05 0.05,0.04 0.11,0.09 0.15,0.16 0.04,0.07 0.07,0.16 0.09,0.28 0.02,0.11 0.03,0.25 0.03,0.41zm13.7 -14.02c0,0.15 -0.01,0.29 -0.03,0.4 -0.02,0.11 -0.05,0.2 -0.09,0.28 -0.04,0.07 -0.09,0.12 -0.15,0.15 -0.06,0.03 -0.13,0.05 -0.2,0.05l-4.96 0 0 13.75c0,0.07 -0.02,0.12 -0.06,0.17 -0.04,0.05 -0.1,0.09 -0.19,0.12 -0.09,0.03 -0.21,0.05 -0.36,0.08 -0.15,0.02 -0.34,0.03 -0.57,0.03 -0.22,0 -0.4,-0.01 -0.56,-0.03 -0.15,-0.02 -0.28,-0.05 -0.37,-0.08 -0.09,-0.03 -0.15,-0.07 -0.19,-0.12 -0.04,-0.05 -0.06,-0.1 -0.06,-0.17l0 -13.75 -4.96 0c-0.07,0 -0.13,-0.02 -0.2,-0.05 -0.06,-0.03 -0.11,-0.08 -0.14,-0.15 -0.03,-0.07 -0.06,-0.16 -0.09,-0.28 -0.02,-0.11 -0.03,-0.25 -0.03,-0.4 0,-0.16 0.01,-0.29 0.03,-0.41 0.02,-0.12 0.06,-0.21 0.09,-0.28 0.04,-0.08 0.08,-0.13 0.14,-0.16 0.06,-0.03 0.13,-0.05 0.2,-0.05l12.26 0c0.07,0 0.13,0.02 0.2,0.05 0.06,0.03 0.11,0.08 0.15,0.16 0.04,0.07 0.07,0.17 0.09,0.28 0.02,0.12 0.03,0.26 0.03,0.41zm18.23 6.79c0,1.37 -0.19,2.57 -0.59,3.59 -0.39,1.03 -0.96,1.88 -1.71,2.55 -0.75,0.67 -1.67,1.18 -2.76,1.51 -1.09,0.33 -2.39,0.5 -3.9,0.5l-3.74 0c-0.21,0 -0.41,-0.06 -0.6,-0.19 -0.19,-0.13 -0.28,-0.35 -0.28,-0.67l0 -14.14c0,-0.32 0.09,-0.54 0.28,-0.67 0.19,-0.13 0.39,-0.19 0.6,-0.19l4 0c1.53,0 2.82,0.18 3.88,0.53 1.05,0.36 1.94,0.87 2.65,1.53 0.71,0.67 1.25,1.47 1.62,2.42 0.37,0.94 0.55,2.01 0.55,3.21zm-2.46 0.09c0,-0.86 -0.12,-1.66 -0.35,-2.4 -0.24,-0.74 -0.61,-1.38 -1.11,-1.92 -0.51,-0.54 -1.15,-0.96 -1.92,-1.26 -0.77,-0.3 -1.77,-0.45 -2.99,-0.45l-2.39 0 0 12.34 2.42 0c1.13,0 2.08,-0.13 2.86,-0.38 0.77,-0.25 1.42,-0.64 1.94,-1.16 0.52,-0.52 0.91,-1.18 1.17,-1.97 0.26,-0.79 0.39,-1.72 0.39,-2.8zm20.98 7.32c0.07,0.18 0.11,0.32 0.12,0.44 0.01,0.11 -0.03,0.19 -0.1,0.25 -0.07,0.05 -0.19,0.09 -0.36,0.11 -0.17,0.02 -0.39,0.02 -0.68,0.02 -0.28,0 -0.51,-0 -0.67,-0.02 -0.17,-0.01 -0.29,-0.03 -0.38,-0.06 -0.09,-0.03 -0.15,-0.07 -0.19,-0.12 -0.04,-0.05 -0.08,-0.11 -0.12,-0.18l-1.51 -3.86 -7.34 0 -1.45 3.81c-0.03,0.08 -0.06,0.14 -0.11,0.19 -0.05,0.05 -0.11,0.1 -0.2,0.13 -0.08,0.04 -0.21,0.06 -0.37,0.08 -0.16,0.02 -0.36,0.02 -0.62,0.02 -0.27,0 -0.48,-0.01 -0.65,-0.03 -0.17,-0.02 -0.29,-0.06 -0.35,-0.12 -0.07,-0.06 -0.1,-0.14 -0.1,-0.25 0,-0.11 0.04,-0.26 0.12,-0.44l5.92 -14.73c0.04,-0.09 0.09,-0.17 0.14,-0.22 0.06,-0.06 0.15,-0.1 0.26,-0.13 0.11,-0.03 0.26,-0.06 0.44,-0.07 0.18,-0.01 0.4,-0.02 0.67,-0.02 0.29,0 0.53,0 0.72,0.02 0.19,0.01 0.35,0.04 0.46,0.07 0.12,0.03 0.21,0.08 0.27,0.14 0.07,0.06 0.12,0.14 0.15,0.23l5.92 14.73zm-7.6 -13l-0.01 0 -3.04 7.9 6.14 0 -3.08 -7.9z"/>
    </g>
   </g>
  </g>
 </g>
</svg>
