<?xml version="1.0" encoding="UTF-8"?>
<!DOCTYPE svg PUBLIC "-//W3C//DTD SVG 1.1//EN" "http://www.w3.org/Graphics/SVG/1.1/DTD/svg11.dtd">
<!-- Creator: CorelDRAW 2021 (64 Bit) -->
<svg xmlns="http://www.w3.org/2000/svg" xml:space="preserve" width="205.991mm" height="34.2578mm" version="1.1" style="shape-rendering:geometricPrecision; text-rendering:geometricPrecision; image-rendering:optimizeQuality; fill-rule:evenodd; clip-rule:evenodd"
viewBox="0 0 10065.98 1674.04"
 xmlns:xlink="http://www.w3.org/1999/xlink"
 xmlns:xodm="http://www.corel.com/coreldraw/odm/2003">
 <defs>
  <style type="text/css">
   <![CDATA[
    .fil2 {fill:#282829}
    .fil1 {fill:#373435;fill-rule:nonzero}
    .fil5 {fill:#ED3237;fill-rule:nonzero}
    .fil4 {fill:#F4E72E;fill-rule:nonzero}
    .fil0 {fill:#57B464;fill-rule:nonzero}
    .fil3 {fill:#1CADE4;fill-rule:nonzero}
   ]]>
  </style>
 </defs>
 <g id="Camada_x0020_1">
  <metadata id="CorelCorpID_0Corel-Layer"/>
  <path class="fil0" d="M2716.1 1159.75c-9.51,0 -17.24,-7.71 -17.24,-17.24l0 -631.75c-1.62,-83.92 42.96,-145.7 132.48,-183.27 84.55,-35.46 183,-53.44 292.62,-53.44l19.96 0c27.53,0 60.73,3.84 98.69,11.41 8.05,1.6 13.86,8.69 13.86,16.91l0 208.38c0,6.06 -3.21,11.7 -8.45,14.82 -2.69,1.61 -5.74,2.41 -8.79,2.41 -2.83,0 -5.67,-0.7 -8.26,-2.12 -45.98,-25.08 -101.36,-37.78 -164.65,-37.78 -38.68,0 -79.81,6.64 -122.41,19.72l0 634.7c0,9.53 -7.72,17.24 -17.24,17.24l-210.59 0z"/>
  <path class="fil1" d="M3143.93 256.81l-19.96 0c-111.93,0 -212.64,18.43 -299.28,54.78 -120.45,50.53 -144.27,136.57 -143.05,199.82l-0.02 631.1c0,19.03 15.45,34.48 34.48,34.48l210.58 0c19.03,0 34.48,-15.45 34.48,-34.48l0 -621.79c36.62,-10.22 71.88,-15.4 105.19,-15.4 60.35,0 112.97,12 156.38,35.69 5.15,2.81 10.84,4.21 16.51,4.21 6.1,0 12.19,-1.6 17.6,-4.83 10.46,-6.21 16.88,-17.46 16.88,-29.65l0 -208.36c0,-16.45 -11.6,-30.6 -27.74,-33.81 -39.05,-7.81 -73.37,-11.76 -102.06,-11.76zm0 34.48c26.6,0 58.36,3.71 95.31,11.09l0 208.36c-48.77,-26.6 -106.4,-39.89 -172.89,-39.89 -44.34,0 -90.9,8.14 -139.67,24.37l0 647.28 -210.58 0 0 -631.77c-1.49,-76.82 39.15,-132.62 121.91,-167.37 82.76,-34.69 178.07,-52.08 285.95,-52.08l19.96 0z"/>
  <path class="fil0" d="M3875.53 637.6c-2.57,-53.65 -17.36,-96.16 -44.08,-126.57 -29.36,-33.34 -69.37,-49.56 -122.26,-49.56 -43.93,0 -80.26,17.27 -111.11,52.82 -27.93,32.15 -44.66,73.56 -49.87,123.31l327.31 0zm-93.17 544.31c-148.75,0 -268.72,-42.23 -356.57,-125.55 -88.14,-83.49 -132.84,-196.21 -132.84,-335.04 0,-91.17 19.34,-172.99 57.51,-243.21 38.27,-68.92 88.78,-122.88 150.23,-160.51 61.58,-37.73 130.24,-56.86 204.07,-56.86 131.62,0 235.14,41.48 307.71,123.28 72.01,81.24 108.52,194.71 108.52,337.29l0 82.02c0,9.53 -7.7,17.24 -17.24,17.24l-558.93 0c18.25,106.52 105.6,158.37 266.34,158.37 110.4,0 194.73,-7.28 250.63,-21.62 1.41,-0.36 2.86,-0.54 4.29,-0.54 3.78,0 7.5,1.24 10.57,3.62 4.21,3.26 6.67,8.29 6.67,13.62l0 157.37c0,7.74 -5.17,14.52 -12.62,16.6 -80.9,22.49 -177.92,33.89 -288.35,33.89z"/>
  <path class="fil1" d="M3567.95 620.36c6.58,-37.86 20.82,-69.08 43.13,-94.76 27.39,-31.55 59.47,-46.89 98.11,-46.89 47.66,0 83.42,14.31 109.35,43.74 21.05,23.96 33.91,56.8 38.39,97.92l-288.97 0zm136.81 -376.84c-77.06,0 -148.73,19.98 -213.07,59.37 -64.01,39.22 -116.57,95.31 -156.23,166.74 -39.7,73.03 -59.75,157.61 -59.75,251.7 0,143.74 46.51,260.69 138.24,347.57 91.14,86.42 215.09,130.26 368.41,130.26 111.98,0 210.53,-11.62 292.97,-34.51 14.91,-4.15 25.24,-17.74 25.24,-33.22l0 -157.37c0,-10.67 -4.93,-20.74 -13.35,-27.25 -6.1,-4.74 -13.57,-7.22 -21.13,-7.22 -2.86,0 -5.74,0.34 -8.57,1.07 -54.52,14 -137.41,21.09 -246.36,21.09 -175.34,0 -228.37,-62.92 -245.07,-123.9l537.68 0c19.03,0 34.48,-15.43 34.48,-34.48l0 -82.02c0,-146.91 -37.98,-264.24 -112.87,-348.72 -76.01,-85.66 -183.87,-129.08 -320.62,-129.08zm-175.13 411.32l363.55 0c0,-66.51 -16.29,-118.21 -48.77,-155.18 -32.53,-36.92 -77.57,-55.42 -135.22,-55.42 -48.75,0 -90.16,19.61 -124.12,58.75 -34.03,39.19 -52.48,89.78 -55.44,151.86zm175.13 -376.84c127.09,0 225.35,39.17 294.82,117.48 69.44,78.33 104.19,186.97 104.19,325.85l0 82.02 -578.55 0c11.79,128.57 107.12,192.85 285.94,192.85 112.29,0 197.3,-7.37 254.92,-22.15l0 157.37c-79.8,22.17 -174.39,33.25 -283.73,33.25 -144.86,0 -259.74,-40.25 -344.71,-120.83 -85,-80.5 -127.46,-188.02 -127.46,-322.52 0,-88.66 18.46,-166.98 55.42,-234.97 36.92,-66.51 84.95,-117.83 144.1,-154.06 59.08,-36.2 124.12,-54.3 195.06,-54.3z"/>
  <path class="fil0" d="M4762.1 1159.75c-9.51,0 -17.24,-7.71 -17.24,-17.24l0 -498.77c0,-50.17 -11.67,-89.28 -34.67,-116.28 -22.65,-26.48 -55.71,-39.37 -101.06,-39.37 -47.25,0 -110.75,13.95 -188.92,41.46l0 612.96c0,9.53 -7.73,17.24 -17.24,17.24l-210.59 0c-9.51,0 -17.24,-7.71 -17.24,-17.24l0 -851.22c0,-9.53 7.72,-17.24 17.24,-17.24l177.35 0c9.52,0 17.24,7.71 17.24,17.24l0 46.1c93.98,-42.05 187.25,-63.34 277.58,-63.34 93.99,0 166.42,21.56 215.26,64.09 40.7,36.06 69.61,80.4 86,131.89 15.98,50.23 24.1,117.62 24.1,200.3l0 472.17c0,9.53 -7.71,17.24 -17.24,17.24l-210.59 0z"/>
  <path class="fil1" d="M4664.56 256.81c-84.97,0 -172.34,18.29 -260.34,54.42l0 -19.95c0,-19.03 -15.45,-34.48 -34.48,-34.48l-177.35 0c-19.03,0 -34.48,15.45 -34.48,34.48l0 851.22c0,19.03 15.45,34.48 34.48,34.48l210.59 0c19.05,0 34.48,-15.45 34.48,-34.48l0 -600.71c71.02,-24.22 128.7,-36.48 171.68,-36.48 39.99,0 68.76,10.91 87.95,33.38 20.26,23.74 30.53,59.08 30.53,105.04l0 498.77c0,19.03 15.43,34.48 34.48,34.48l210.59 0c19.05,0 34.48,-15.45 34.48,-34.48l0 -472.15c0,-84.46 -8.38,-153.62 -24.89,-205.54 -17.36,-54.51 -47.94,-101.43 -90.92,-139.48 -52.27,-45.53 -128.52,-68.52 -226.79,-68.52zm0 34.48c90.12,0 158.11,19.95 203.93,59.86 38.43,34 65.39,75.37 80.9,124.13 15.53,48.77 23.29,113.81 23.29,195.08l0 472.15 -210.59 0 0 -498.77c0,-54.65 -12.95,-97.14 -38.79,-127.45 -25.89,-30.27 -63.94,-45.44 -114.17,-45.44 -51.73,0 -120.46,15.5 -206.16,46.54l0 625.11 -210.59 0 0 -851.22 177.35 0 0 73.15c100.46,-48.77 198.74,-73.15 294.82,-73.15z"/>
  <path class="fil0" d="M5464.79 1157.52c-115.02,0 -198.52,-24.77 -248.17,-73.66 -49.74,-48.92 -74.98,-128.4 -74.98,-236.19l0 -372.88 -124.63 0c-9.52,0 -17.24,-7.72 -17.24,-17.24l0 -166.27c0,-9.53 7.72,-17.24 17.24,-17.24l649.49 0c9.53,0 17.24,7.71 17.24,17.24l0 166.27c0,9.52 -7.71,17.24 -17.24,17.24l-277.56 0 0 368.46c0,72.92 38.88,106.89 122.4,106.89 35.41,0 85.47,-8.03 148.77,-23.87 1.4,-0.37 2.8,-0.52 4.19,-0.52 3.81,0 7.55,1.26 10.6,3.66 4.21,3.25 6.64,8.27 6.64,13.58l0 159.6c0,7.95 -5.41,14.86 -13.12,16.76l-117.5 28.81c-37.34,6.29 -65.89,9.36 -86.12,9.36z"/>
  <path class="fil1" d="M5666.5 256.81l-294.82 0 -212.8 0 -141.88 0c-19.03,0 -34.48,15.45 -34.48,34.48l0 166.27c0,19.03 15.45,34.48 34.48,34.48l107.4 0 0 355.64c0,112.59 26.94,196.18 80.13,248.46 53.73,52.91 138.87,78.63 260.25,78.63 21.43,0 50.12,-3.05 87.71,-9.35 0.85,-0.14 1.67,-0.31 2.52,-0.51l117.48 -28.81c15.41,-3.79 26.27,-17.62 26.27,-33.5l0 -159.6c0,-10.64 -4.9,-20.65 -13.26,-27.17 -6.14,-4.79 -13.63,-7.31 -21.22,-7.31 -2.79,0 -5.6,0.33 -8.38,1.02 -61.9,15.51 -110.55,23.37 -144.58,23.37 -54.63,0 -105.17,-10.88 -105.17,-89.66l0 -351.22 258.14 0 2.21 0c19.05,0 34.48,-15.44 34.48,-34.48l0 -166.27c0,-19.03 -15.43,-34.48 -34.48,-34.48zm0 34.48l0 166.27 -2.21 0 -292.61 0 0 385.7c0,82.76 46.56,124.14 139.65,124.14 36.93,0 87.92,-8.12 152.96,-24.39l0 159.6 -117.48 28.81c-35.48,5.95 -62.84,8.88 -82.03,8.88 -110.84,0 -189.52,-22.89 -236.09,-68.72 -46.56,-45.8 -69.81,-120.43 -69.81,-223.9l0 -390.11 -141.88 0 0 -166.27 141.88 0 212.8 0 294.82 0z"/>
  <path class="fil0" d="M6627.55 785.07c-54.3,4.17 -94.04,14.41 -118.05,30.41 -21.67,14.46 -32.22,35.15 -32.22,63.25 0,28.6 10.11,50.22 30.89,66.1 21.95,16.77 53.47,25.27 93.74,25.27 33.87,0 61.87,-2.79 83.25,-8.31 19.48,-5.02 44.56,-16.17 74.63,-33.18l0 -153.23 -132.24 9.7zm-78.84 379.1c-95.43,0 -173.02,-24.86 -230.64,-73.92 -58.45,-49.77 -88.09,-115.72 -88.09,-196.02 0,-88.06 33.25,-157.93 98.83,-207.7 63.8,-48.44 155.39,-76.09 272.2,-82.18l149.72 -7.97c-1.13,-52.99 -7.82,-77.61 -13.53,-89.05 -8.74,-19.93 -23.48,-32.79 -45.41,-40.08 -24.76,-8.26 -65.42,-12.43 -120.93,-12.43 -37.26,0 -81.56,3.67 -131.64,10.91 -49.53,7.21 -89.69,16.59 -119.38,27.88 -1.98,0.76 -4.05,1.12 -6.12,1.12 -3.45,0 -6.88,-1.02 -9.77,-3.05 -4.67,-3.21 -7.46,-8.51 -7.46,-14.19l0 -155.16c0,-7.34 4.64,-13.88 11.6,-16.29 39.15,-13.57 89.12,-24.65 148.46,-32.93 59.06,-8.2 108.73,-12.36 147.58,-12.36 141,0 244.31,27.1 307.09,80.58 63.61,54.18 95.85,142.51 95.85,262.51l0 538.67c0,9.53 -7.73,17.24 -17.24,17.24l-190.65 0c-9.32,0 -16.95,-7.39 -17.24,-16.72l-1.24 -42.77c-64.49,42.44 -142.36,63.92 -232,63.92z"/>
  <path class="fil1" d="M6601.91 952.86c-36.39,0 -64.41,-7.31 -83.23,-21.72 -16.5,-12.58 -24.15,-29.24 -24.15,-52.42 0,-22.5 7.55,-37.58 24.53,-48.91 14.79,-9.85 45.86,-22.62 109.86,-27.55l113.62 -8.36 0 124.55c-24.81,13.53 -45.51,22.48 -61.66,26.63 -20,5.17 -46.56,7.77 -78.97,7.77zm2.22 -709.34c-40.2,0 -89.26,4.09 -149.94,12.51 -60.42,8.41 -111.47,19.78 -151.74,33.7 -13.89,4.81 -23.2,17.89 -23.2,32.6l0 155.17c0,11.32 5.57,21.94 14.91,28.37 5.83,4.04 12.69,6.1 19.57,6.1 4.14,0 8.31,-0.76 12.28,-2.26 28.46,-10.84 67.39,-19.89 115.72,-26.93 49.2,-7.12 92.64,-10.74 129.14,-10.74 66.83,0 99.67,6.29 115.45,11.55 17.29,5.76 28.34,15.26 34.75,29.9 0.22,0.51 0.46,1.03 0.72,1.55 3.59,7.21 9.16,24.63 11.16,65.01l-132.86 7.09c-120.29,6.26 -215.09,35.08 -281.7,85.68 -70.09,53.18 -105.62,127.67 -105.62,221.42 0,85.59 31.67,155.96 94.14,209.12 60.8,51.79 142.17,78.06 241.81,78.06 81.51,0 153.74,-17.17 215.64,-51.18l0.38 13.29c0.55,18.64 15.81,33.46 34.46,33.46l190.65 0c19.03,0 34.48,-15.45 34.48,-34.48l0 -538.66c0,-125.29 -34.27,-218.04 -101.9,-275.62 -66.91,-57.01 -171.03,-84.71 -318.28,-84.71zm-2.22 743.82c35.46,0 64.63,-2.95 87.56,-8.88 22.89,-5.88 52.11,-19.19 87.55,-39.89l0 -181.76 -150.74 11.08c-57.63,4.41 -99.74,15.51 -126.34,33.23 -26.6,17.76 -39.89,43.62 -39.89,77.59 0,34.01 12.53,60.61 37.67,79.8 25.12,19.22 59.86,28.83 104.19,28.83zm2.22 -709.34c137.45,0 236.07,25.48 295.92,76.47 59.85,50.97 89.78,134.1 89.78,249.38l0 538.66 -190.65 0 -2.22 -75.37c-66.49,53.2 -149.27,79.8 -248.26,79.8 -91.64,0 -164.8,-23.29 -219.45,-69.82 -54.7,-46.56 -82.02,-107.52 -82.02,-182.89 0,-82.74 30.65,-147.41 92,-193.95 61.29,-46.56 148.84,-72.78 262.67,-78.71l166.25 -8.84c0,-54.66 -5.19,-92.35 -15.51,-113.07 -10.34,-23.62 -28.82,-39.89 -55.42,-48.75 -26.6,-8.88 -68.72,-13.33 -126.36,-13.33 -38.43,0 -83.11,3.72 -134.1,11.1 -50.98,7.41 -91.99,17 -123.03,28.83l0 -155.17c38.43,-13.33 86.8,-24.01 145.21,-32.15 58.35,-8.1 106.74,-12.19 145.2,-12.19z"/>
  <path class="fil0" d="M8007.29 1159.75c-137.17,0 -249.05,-42.74 -332.56,-127.02 -83.49,-84.21 -125.83,-196.44 -125.83,-333.57 0,-137.33 41.36,-245.95 122.89,-322.87 81.26,-76.68 194.14,-115.53 335.49,-115.53 99.34,0 184.39,14.62 252.74,43.48 6.38,2.69 10.54,8.95 10.54,15.88l0 168.46c0,5.54 -2.64,10.71 -7.11,13.95 -2.96,2.17 -6.53,3.29 -10.13,3.29 -1.77,0 -3.59,-0.26 -5.31,-0.83 -53.84,-17.46 -93.98,-29.27 -119.34,-35.08 -24.58,-5.59 -53.49,-8.43 -85.92,-8.43 -79.16,0 -139.62,19.96 -179.66,59.35 -39.98,39.3 -60.23,99.3 -60.23,178.34 0,76.45 21.98,139.29 65.31,186.78 43.53,47.68 100.64,70.87 174.58,70.87 32.56,0 61.47,-2.86 85.92,-8.45 25.19,-5.74 65.33,-17.53 119.34,-35.06 1.72,-0.57 3.54,-0.85 5.31,-0.85 3.6,0 7.17,1.14 10.13,3.31 4.47,3.23 7.11,8.41 7.11,13.93l0 168.48c0,7.09 -4.33,13.44 -10.93,16.03 -76.93,30.22 -161.85,45.55 -252.34,45.55z"/>
  <path class="fil1" d="M8007.29 243.51c-145.89,0 -262.74,40.46 -347.3,120.24 -85.14,80.32 -128.33,193.16 -128.33,335.42 0,141.84 44.01,258.15 130.81,345.69 86.85,87.66 202.87,132.12 344.81,132.12 92.64,0 179.66,-15.72 258.65,-46.72 13.21,-5.17 21.86,-17.91 21.86,-32.1l0 -168.46c0,-11.03 -5.26,-21.41 -14.19,-27.88 -5.96,-4.34 -13.08,-6.6 -20.29,-6.6 -3.57,0 -7.15,0.55 -10.62,1.67 -53.65,17.41 -93.3,29.07 -117.85,34.65 -23.19,5.33 -50.8,8.02 -82.11,8.02 -68.83,0 -121.77,-21.34 -161.85,-65.25 -40.91,-44.82 -60.8,-102.11 -60.8,-175.15 0,-74.25 18.53,-130.12 55.08,-166.06 36.72,-36.1 93.09,-54.39 167.58,-54.39 31.13,0 58.77,2.69 82.13,7.99 24.84,5.69 64.5,17.36 117.83,34.65 3.46,1.14 7.05,1.69 10.62,1.69 7.21,0 14.33,-2.26 20.29,-6.59 8.93,-6.5 14.19,-16.86 14.19,-27.89l0 -168.48c0,-13.86 -8.29,-26.37 -21.05,-31.75 -70.52,-29.75 -157.82,-44.83 -259.46,-44.83zm0 34.48c97.52,0 179.54,14.05 246.03,42.11l0 168.48c-54.67,-17.72 -94.95,-29.54 -120.79,-35.48 -25.87,-5.88 -55.81,-8.86 -89.78,-8.86 -84.23,0 -148.17,21.45 -191.75,64.28 -43.62,42.88 -65.39,106.4 -65.39,190.65 0,81.28 23.27,147.39 69.81,198.38 46.56,51 108.99,76.49 187.32,76.49 33.98,0 63.91,-2.95 89.78,-8.88 25.84,-5.88 66.13,-17.72 120.79,-35.46l0 168.46c-75.37,29.6 -157.36,44.34 -246.03,44.34 -133.02,0 -239.8,-40.63 -320.32,-121.92 -80.58,-81.26 -120.83,-188.44 -120.83,-321.42 0,-133.02 39.15,-236.43 117.5,-310.33 78.32,-73.89 186.2,-110.85 323.64,-110.85z"/>
  <path class="fil0" d="M8722.3 785.07c-54.3,4.17 -94.04,14.41 -118.05,30.41 -21.67,14.46 -32.22,35.15 -32.22,63.25 0,28.6 10.1,50.22 30.89,66.1 21.95,16.77 53.47,25.27 93.74,25.27 33.87,0 61.87,-2.79 83.25,-8.31 19.48,-5.02 44.56,-16.17 74.62,-33.18l0 -153.23 -132.24 9.7zm-78.84 379.1c-95.44,0 -173.02,-24.86 -230.64,-73.92 -58.46,-49.77 -88.09,-115.72 -88.09,-196.02 0,-88.06 33.25,-157.93 98.83,-207.7 63.8,-48.44 155.39,-76.09 272.2,-82.18l149.72 -7.97c-1.14,-52.99 -7.82,-77.61 -13.53,-89.05 -8.74,-19.93 -23.48,-32.79 -45.41,-40.08 -24.76,-8.26 -65.42,-12.43 -120.93,-12.43 -37.25,0 -81.55,3.67 -131.64,10.91 -49.53,7.21 -89.69,16.59 -119.38,27.88 -1.98,0.76 -4.05,1.12 -6.12,1.12 -3.45,0 -6.88,-1.02 -9.77,-3.05 -4.67,-3.21 -7.47,-8.51 -7.47,-14.19l0 -155.16c0,-7.34 4.64,-13.88 11.61,-16.29 39.15,-13.57 89.12,-24.65 148.46,-32.93 59.06,-8.2 108.72,-12.36 147.58,-12.36 141,0 244.31,27.1 307.09,80.58 63.61,54.18 95.85,142.51 95.85,262.51l0 538.67c0,9.53 -7.72,17.24 -17.24,17.24l-190.65 0c-9.33,0 -16.95,-7.39 -17.24,-16.72l-1.24 -42.77c-64.49,42.44 -142.36,63.92 -232,63.92z"/>
  <path class="fil1" d="M8696.66 952.86c-36.39,0 -64.41,-7.31 -83.23,-21.72 -16.5,-12.58 -24.15,-29.24 -24.15,-52.42 0,-22.5 7.57,-37.58 24.53,-48.91 14.79,-9.85 45.86,-22.62 109.87,-27.55l113.62 -8.36 0 124.55c-24.81,13.53 -45.51,22.48 -61.66,26.63 -20,5.17 -46.56,7.77 -78.97,7.77zm2.22 -709.34c-40.2,0 -89.24,4.09 -149.95,12.51 -60.42,8.41 -111.46,19.78 -151.73,33.7 -13.89,4.81 -23.2,17.89 -23.2,32.6l0 155.17c0,11.32 5.57,21.94 14.91,28.37 5.82,4.04 12.69,6.1 19.57,6.1 4.14,0 8.31,-0.76 12.28,-2.26 28.46,-10.84 67.39,-19.89 115.72,-26.93 49.2,-7.12 92.64,-10.74 129.13,-10.74 66.84,0 99.68,6.29 115.45,11.55 17.29,5.76 28.34,15.26 34.75,29.9 0.22,0.51 0.46,1.03 0.72,1.55 3.59,7.21 9.15,24.63 11.16,65.01l-132.86 7.09c-120.29,6.26 -215.09,35.08 -281.7,85.68 -70.09,53.18 -105.62,127.67 -105.62,221.42 0,85.59 31.67,155.96 94.14,209.12 60.8,51.79 142.17,78.06 241.81,78.06 81.51,0 153.74,-17.17 215.64,-51.18l0.38 13.29c0.55,18.64 15.81,33.46 34.46,33.46l190.65 0c19.03,0 34.48,-15.45 34.48,-34.48l0 -538.66c0,-125.29 -34.27,-218.04 -101.9,-275.62 -66.92,-57.01 -171.03,-84.71 -318.28,-84.71zm-2.22 743.82c35.48,0 64.63,-2.95 87.56,-8.88 22.89,-5.88 52.11,-19.19 87.55,-39.89l0 -181.76 -150.74 11.08c-57.63,4.41 -99.75,15.51 -126.34,33.23 -26.6,17.76 -39.89,43.62 -39.89,77.59 0,34.01 12.53,60.61 37.67,79.8 25.12,19.22 59.85,28.83 104.19,28.83zm2.22 -709.34c137.45,0 236.07,25.48 295.92,76.47 59.85,50.97 89.78,134.1 89.78,249.38l0 538.66 -190.65 0 -2.22 -75.37c-66.49,53.2 -149.27,79.8 -248.26,79.8 -91.64,0 -164.8,-23.29 -219.45,-69.82 -54.7,-46.56 -82.03,-107.52 -82.03,-182.89 0,-82.74 30.65,-147.41 92.01,-193.95 61.28,-46.56 148.84,-72.78 262.67,-78.71l166.25 -8.84c0,-54.66 -5.19,-92.35 -15.51,-113.07 -10.34,-23.62 -28.83,-39.89 -55.42,-48.75 -26.6,-8.88 -68.72,-13.33 -126.36,-13.33 -38.42,0 -83.11,3.72 -134.1,11.1 -50.98,7.41 -91.99,17 -123.03,28.83l0 -155.17c38.42,-13.33 86.8,-24.01 145.21,-32.15 58.35,-8.1 106.74,-12.19 145.2,-12.19z"/>
  <path class="fil0" d="M9173.25 1159.75c-9.53,0 -17.24,-7.71 -17.24,-17.24l0 -631.75c-1.64,-83.92 42.92,-145.69 132.5,-183.27 84.54,-35.46 182.99,-53.44 292.61,-53.44l19.94 0c27.55,0 60.75,3.84 98.69,11.41 8.07,1.6 13.88,8.69 13.88,16.91l0 208.38c0,6.06 -3.23,11.7 -8.45,14.82 -2.71,1.61 -5.76,2.41 -8.79,2.41 -2.84,0 -5.67,-0.7 -8.26,-2.12 -45.99,-25.08 -101.38,-37.78 -164.65,-37.78 -38.7,0 -79.81,6.64 -122.41,19.72l0 634.7c0,9.53 -7.71,17.24 -17.24,17.24l-210.59 0z"/>
  <path class="fil1" d="M9601.07 256.81l-19.95 0c-111.95,0 -212.64,18.43 -299.3,54.78 -120.46,50.53 -144.29,136.57 -143.05,199.83l0 631.08c0,19.03 15.43,34.48 34.48,34.48l210.57 0c19.05,0 34.48,-15.45 34.48,-34.48l0 -621.79c36.62,-10.22 71.89,-15.4 105.19,-15.4 60.35,0 112.96,12 156.37,35.69 5.16,2.81 10.84,4.21 16.52,4.21 6.1,0 12.19,-1.6 17.62,-4.83 10.45,-6.21 16.86,-17.46 16.86,-29.65l0 -208.36c0,-16.45 -11.61,-30.6 -27.72,-33.81 -39.05,-7.81 -73.39,-11.76 -102.07,-11.76zm0 34.48c26.6,0 58.37,3.71 95.31,11.09l0 208.36c-48.77,-26.6 -106.4,-39.89 -172.89,-39.89 -44.34,0 -90.89,8.14 -139.67,24.37l0 647.28 -210.57 0 0 -631.77c-1.5,-76.82 39.13,-132.62 121.91,-167.37 82.75,-34.69 178.06,-52.08 285.96,-52.08l19.95 0z"/>
  <path class="fil2" d="M346.48 382.53l0 908.99c0,95.67 -77.56,173.25 -173.23,173.25 -95.67,0 -173.24,-77.58 -173.24,-173.25l0 -908.99c0,-95.67 77.57,-173.24 173.24,-173.24 95.67,0 173.23,77.57 173.23,173.24z"/>
  <path class="fil3" d="M317.16 382.53l0 908.99c0,79.49 -64.42,143.93 -143.91,143.93 -79.49,0 -143.93,-64.44 -143.93,-143.93l0 -908.99c0,-79.49 64.44,-143.93 143.93,-143.93 79.49,0 143.91,64.43 143.91,143.93z"/>
  <path class="fil2" d="M417.29 710.7l564.8 -656.08c29.86,-34.68 73.37,-54.63 119.14,-54.63 135.03,0 207.25,159.23 118.27,260.81l-427.06 487.54c-31.76,36.26 -32.63,90.21 -2.06,127.47l444.09 541.3c84.14,102.56 11.11,256.92 -121.55,256.92l-9.17 0c-47.55,0 -92.53,-21.5 -122.38,-58.51l-567.31 -703.57c-47.62,-59.05 -46.26,-143.76 3.24,-201.25z"/>
  <path class="fil3" d="M439.51 729.83l564.8 -656.08c24.29,-28.2 59.68,-44.44 96.92,-44.44 109.91,0 168.63,129.48 96.21,212.17l-427.06 487.54c-41.22,47.06 -42.34,117.03 -2.67,165.39l444.09 541.3c68.49,83.47 9.1,209.01 -98.88,209.01l-9.17 0c-38.68,0 -75.28,-17.48 -99.55,-47.6l-567.31 -703.57c-38.74,-48.06 -37.63,-116.93 2.63,-163.72z"/>
  <path class="fil2" d="M1518.04 0c95.68,0 173.23,77.57 173.23,173.25l0 665.9c0,284.37 230.51,514.86 514.88,514.86l94.62 0c88.38,0 160.03,71.65 160.03,160.03 0,88.37 -71.66,160.01 -160.03,160.01l-94.62 0c-475.7,0 -861.35,-385.63 -861.35,-861.34l0 -639.46c0,-95.68 77.57,-173.25 173.25,-173.25z"/>
  <path class="fil4" d="M1518.04 29.32l0 0c79.49,0 143.91,64.43 143.91,143.93l0 665.9c0,300.54 243.64,544.18 544.2,544.18l94.62 0c72.2,0 130.71,58.51 130.71,130.71 0,72.18 -58.51,130.69 -130.71,130.69l-94.62 0c-459.52,0 -832.03,-372.5 -832.03,-832.02l0 -639.46c0,-79.51 64.44,-143.93 143.93,-143.93z"/>
  <path class="fil5" d="M2839.53 1472.96l-10.28 -97.95 -0.4 0 -54.18 97.95 64.86 0zm-26.5 -146.43l53.39 0 28.08 233.15 -46.66 0 -5.53 -52.84 -84.65 0 -29.65 52.84 -47.85 0 132.88 -233.15z"/>
  <polygon class="fil5" points="3077.88,1326.53 3125.73,1326.53 3080.64,1525.81 3190.19,1525.81 3190.19,1559.69 3025.68,1559.69 "/>
  <path class="fil5" d="M3332.87 1478.87l34.01 -152.34 47.83 0 -34.41 153.58c-7.5,32.32 0,47.56 37.98,47.56 37.96,0 52.99,-13.05 60.89,-47.56l34.41 -153.58 47.46 0 -35.6 159.17c-12.26,54.42 -50.21,76.49 -106.38,76.49 -75.13,0 -98.45,-28.29 -86.19,-83.32z"/>
  <path class="fil5" d="M3664.15 1476.38l17.39 -78.64c12.26,-54.73 56.56,-73.08 107.95,-73.08 70.41,0 94.92,20.53 89.39,69.34l-47.46 2.48c3.96,-28.29 -6.33,-37.92 -41.13,-37.92 -34.79,0 -54.56,13.05 -62.08,44.15l-16.62 74.3c-7.1,30.77 4.36,51.61 39.55,51.61 39.94,0 56.17,-9.94 65.27,-48.8l2.76 -12.13 -54.58 0 7.53 -32.96 98.47 0 -10.69 47.25c-13.84,62.2 -51.01,80.23 -108.37,80.23 -67.22,0 -100.04,-31.41 -87.38,-85.82z"/>
  <path class="fil5" d="M3996.23 1478.87l34.01 -152.34 47.86 0 -34.41 153.58c-7.52,32.32 0,47.56 37.96,47.56 37.96,0 53,-13.05 60.89,-47.56l34.41 -153.58 47.46 0 -35.6 159.17c-12.26,54.42 -50.21,76.49 -106.36,76.49 -75.13,0 -98.47,-28.29 -86.21,-83.32z"/>
  <polygon class="fil5" points="4371.8,1326.53 4528.8,1326.53 4521.28,1361.35 4412.52,1361.35 4398.7,1420.12 4477.77,1420.12 4470.27,1455.24 4391.18,1455.24 4374.56,1525.81 4484.12,1525.81 4484.12,1559.69 4319.6,1559.69 "/>
  <polygon class="fil5" points="4676.21,1326.53 4724.05,1326.53 4678.97,1525.81 4788.52,1525.81 4788.52,1559.69 4624.02,1559.69 "/>
  <path class="fil5" d="M5088.9 1491.61l47.06 -2.17c-0.38,30.48 9.1,39.48 43.89,39.48 32.44,0 58.54,-7.77 58.54,-38.25 0.38,-19.27 -18.2,-26.72 -46.27,-35.74 -38.35,-12.12 -73.97,-23.02 -73.97,-61.56 0,-43.54 32.44,-69.34 97.69,-69.34 71.59,0 91.75,27.67 86.99,68.39l-47.46 2.19c3.17,-25.19 -4.72,-36.68 -39.53,-36.68 -32.44,0 -50.61,7.15 -50.61,32.65 0,17.4 19.38,24.24 47.06,32.95 39.53,12.14 73.94,24.56 73.15,63.73 -0.8,47.58 -35.99,74.94 -104.4,74.94 -73.93,0 -95.29,-27.05 -92.14,-70.57z"/>
  <polygon class="fil5" points="5460.12,1326.53 5617.14,1326.53 5609.62,1361.35 5500.86,1361.35 5487.03,1420.12 5566.11,1420.12 5558.61,1455.24 5479.52,1455.24 5462.9,1525.81 5572.45,1525.81 5572.45,1559.69 5407.94,1559.69 "/>
  <polygon class="fil5" points="5764.55,1326.53 5826.64,1326.53 5852.73,1499.09 5853.52,1499.09 5956.35,1326.53 6019.64,1326.53 5967.44,1559.69 5919.56,1559.69 5955.56,1403.93 5954.77,1403.93 5861.43,1559.69 5817.96,1559.69 5795.39,1403.93 5794.6,1403.93 5758.62,1559.69 5712.35,1559.69 "/>
  <path class="fil5" d="M6407.37 1420.12c29.67,0 45.49,-3.74 50.23,-24.88l1.96 -7.79c5.55,-22.07 -8.71,-28.6 -38.35,-28.6l-41.91 0 -14.24 61.27 42.3 0zm-18.58 107.88c32.43,0 47.06,-4.98 52.61,-29.53l2.36 -10.89c5.93,-25.19 -7.12,-34.2 -37.56,-34.2l-48.24 0 -17.43 74.62 48.25 0zm-49.84 -201.47l80.68 0c62.87,0 97.69,15.22 87.82,57.51l-2 9.33c-5.53,24.56 -22.15,36.06 -51.41,41.04 34.39,7.77 43.11,26.12 36.77,54.72l-3.17 14.62c-9.48,41.67 -40.7,55.96 -94.11,55.96l-106.78 0 52.2 -233.17z"/>
  <path class="fil5" d="M6628.33 1478.87l34.03 -152.34 47.84 0 -34.41 153.58c-7.52,32.32 0,47.56 37.96,47.56 37.96,0 52.97,-13.05 60.9,-47.56l34.39 -153.58 47.46 0 -35.58 159.17c-12.26,54.42 -50.22,76.49 -106.38,76.49 -75.13,0 -98.47,-28.29 -86.21,-83.32z"/>
  <path class="fil5" d="M7068.35 1436.58c33.6,0 49.05,-4.03 54.97,-29.22l2.78 -12.12c5.91,-25.51 -6.72,-34.51 -40.34,-34.51l-41.13 0 -17.41 75.85 41.13 0zm-11.46 33.89l-37.17 0 -20.17 89.22 -47.87 0 52.22 -233.17 78.3 0c75.54,0 100.85,24.86 90.95,69.33l-3.57 16.78c-7.1,29.55 -21.74,46.96 -64.45,54.42l39.94 92.64 -49.42 0 -38.76 -89.22z"/>
  <path class="fil5" d="M7440.37 1483.83l16.62 -73.68c7.5,-32.96 -5.55,-51.3 -43.11,-51.3 -40.72,0 -57.33,10.88 -64.86,43.84l-16.6 73.68c-7.52,32.65 4.76,51.93 42.7,51.93 37.58,0 57.74,-11.79 65.25,-44.46zm-156.2 -8.08l17.79 -78.65c12.26,-55.66 55.37,-73.07 112.31,-73.07 70.8,0 102.81,31.41 90.55,86.13l-17.39 78.66c-12.24,54.39 -54.58,73.37 -112.31,73.37 -71.57,0 -103.19,-32.01 -90.95,-86.43z"/>
  <path class="fil5" d="M7620.6 1476.38l17.4 -78.64c12.26,-54.73 56.94,-73.7 107.96,-73.7 71.18,0 94.9,24.55 89.37,73.7l-47.85 1.86c3.57,-30.17 -5.93,-40.74 -40.72,-40.74 -34.81,0 -54.18,13.03 -61.7,43.84l-16.6 74c-7.11,30.77 3.18,51.6 39.53,51.6 37.2,0 49.83,-12.76 59.33,-41.98l45.46 8.4c-17.39,48.18 -47.84,67.47 -104.79,67.47 -67.22,0 -100.02,-31.41 -87.39,-85.82z"/>
  <path class="fil5" d="M8052.34 1436.58c33.61,0 49.04,-4.03 54.97,-29.22l2.78 -12.12c5.91,-25.51 -6.72,-34.51 -40.34,-34.51l-41.14 0 -17.39 75.85 41.12 0zm-11.46 33.89l-37.15 0 -20.19 89.22 -47.85 0 52.2 -233.17 78.3 0c75.56,0 100.84,24.86 90.97,69.33l-3.57 16.78c-7.1,29.55 -21.76,46.96 -64.45,54.42l39.92 92.64 -49.4 0 -38.77 -89.22z"/>
  <path class="fil5" d="M8400.23 1472.96l-10.29 -97.95 -0.38 0 -54.2 97.95 64.87 0zm-26.5 -146.43l53.41 0 28.04 233.15 -46.66 0 -5.54 -52.84 -84.61 0 -29.67 52.84 -47.84 0 132.86 -233.15z"/>
  <path class="fil5" d="M8586.38 1476.38l17.4 -78.64c12.26,-54.73 56.94,-73.7 107.96,-73.7 71.18,0 94.9,24.55 89.37,73.7l-47.85 1.86c3.59,-30.17 -5.93,-40.74 -40.72,-40.74 -34.81,0 -54.18,13.03 -61.7,43.84l-16.6 74c-7.12,30.77 3.17,51.6 39.53,51.6 37.2,0 49.84,-12.76 59.33,-41.98l45.46 8.4c-17.38,48.18 -47.83,67.47 -104.79,67.47 -67.22,0 -100.02,-31.41 -87.39,-85.82z"/>
  <polygon class="fil5" points="8956.43,1326.53 9003.89,1326.53 8951.69,1559.69 8904.25,1559.69 "/>
  <path class="fil5" d="M9245.46 1472.96l-10.31 -97.95 -0.38 0 -54.18 97.95 64.87 0zm-26.51 -146.43l53.41 0 28.06 233.15 -46.66 0 -5.54 -52.84 -84.63 0 -29.67 52.84 -47.84 0 132.86 -233.15z"/>
  <path class="fil5" d="M9492.89 1326.53l49.85 0 -41.15 169.75 -44.27 0 35.56 -169.75zm-44.27 192.44l51.01 0 -8.7 40.72 -51.01 0 8.7 -40.72z"/>
  <path class="fil5" d="M9580.82 1326.53l49.86 0 -41.15 169.75 -44.29 0 35.58 -169.75zm-44.28 192.44l51.03 0 -8.71 40.72 -51.01 0 8.69 -40.72z"/>
  <path class="fil5" d="M9666.01 1326.53l49.85 0 -41.15 169.75 -44.27 0 35.56 -169.75zm-44.27 192.44l51.01 0 -8.71 40.72 -50.99 0 8.69 -40.72z"/>
  <path class="fil1" d="M9887.99 403.46l37.62 0c8,0 14.24,-0.83 18.75,-2.48 4.5,-1.64 7.92,-4.29 10.26,-7.93 2.37,-3.64 3.52,-7.59 3.52,-11.86 0,-6.24 -2.26,-11.38 -6.79,-15.43 -4.55,-4.02 -11.7,-6.03 -21.5,-6.03l-41.86 0 0 43.74zm-17.49 73.85l0 -132.19 58.63 0c11.77,0 20.74,1.19 26.86,3.55 6.14,2.38 11.03,6.57 14.7,12.6 3.67,6 5.5,12.64 5.5,19.91 0,9.38 -3.05,17.29 -9.1,23.72 -6.08,6.43 -15.47,10.52 -28.15,12.26 4.64,2.22 8.16,4.43 10.55,6.59 5.12,4.69 9.96,10.55 14.51,17.58l23 35.98 -21.99 0 -17.5 -27.51c-5.1,-7.91 -9.31,-14 -12.62,-18.2 -3.31,-4.21 -6.27,-7.15 -8.88,-8.84 -2.6,-1.69 -5.27,-2.84 -7.98,-3.52 -1.98,-0.41 -5.24,-0.62 -9.74,-0.62l-20.29 0 0 58.7 -17.49 0z"/>
  <path class="fil1" d="M9922.67 286.61c-69.51,0 -126.06,56.54 -126.06,126.05 0,69.53 56.56,126.08 126.06,126.08 69.51,0 126.05,-56.56 126.05,-126.08 0,-69.51 -56.54,-126.05 -126.05,-126.05zm0 269.37c-79.02,0 -143.3,-64.3 -143.3,-143.32 0,-79.01 64.28,-143.29 143.3,-143.29 79.03,0 143.31,64.28 143.31,143.29 0,79.02 -64.28,143.32 -143.31,143.32z"/>
 </g>
</svg>
